<?xml version="1.0" standalone="no"?>
 <!DOCTYPE svg PUBLIC "-//W3C//DTD SVG 1.1//EN" 
 "http://www.w3.org/Graphics/SVG/1.1/DTD/svg11.dtd"> 
<svg
  xmlns:svg="http://www.w3.org/2000/svg"
  xmlns="http://www.w3.org/2000/svg"
  xmlns:xlink="http://www.w3.org/1999/xlink"
  version="1.1"
  width="29.700220cm" height="21.000720cm" viewBox="0 0 116930 82680">
<title>SVG Picture created as home_light_secondboard-B_Mask.svg date 2020/11/30 14:34:37 </title>
  <desc>Picture generated by PCBNEW </desc>
<g style="fill:#000000; fill-opacity:1;stroke:#000000; stroke-opacity:1;
stroke-linecap:round; stroke-linejoin:round;"
 transform="translate(0 0) scale(1 1)">
</g>
<g style="fill:#000000; fill-opacity:0.0; 
stroke:#000000; stroke-width:-0.000393701; stroke-opacity:1; 
stroke-linecap:round; stroke-linejoin:round;">
</g>
<g style="fill:#000000; fill-opacity:0.0; 
stroke:#000000; stroke-width:39.3701; stroke-opacity:1; 
stroke-linecap:round; stroke-linejoin:round;">
<path d="M62992 16929
L62992 50787
" />
<path d="M23622 16929
L62992 16929
" />
<path d="M23622 50787
L23622 16929
" />
<path d="M62992 50787
L23622 50787
" />
<path d="M62992 16929
L62992 50787
" />
<path d="M23622 16929
L62992 16929
" />
<path d="M23622 50787
L23622 16929
" />
<path d="M62992 50787
L23622 50787
" />
<g >
</g>
<g >
</g>
<g >
</g>
<g >
</g>
<g >
</g>
<g >
</g>
<g >
</g>
<g >
</g>
<g >
</g>
<g style="fill:#000000; fill-opacity:0.0; 
stroke:#000000; stroke-width:39.3701; stroke-opacity:1; 
stroke-linecap:round; stroke-linejoin:round;">
</g>
<g style="fill:#000000; fill-opacity:0.0; 
stroke:#000000; stroke-width:874.016; stroke-opacity:1; 
stroke-linecap:round; stroke-linejoin:round;">
<path d="M47157 20767
L47157 20964
" />
<path d="M48157 20767
L48157 20964
" />
<path d="M49157 20767
L49157 20964
" />
<path d="M50157 20767
L50157 20964
" />
<path d="M51157 20767
L51157 20964
" />
<path d="M52157 20767
L52157 20964
" />
<path d="M53157 20767
L53157 20964
" />
<path d="M54157 20767
L54157 20964
" />
<path d="M55157 20767
L55157 20964
" />
<path d="M56157 20767
L56157 20964
" />
</g>
<g style="fill:#000000; fill-opacity:0.0; 
stroke:#000000; stroke-width:0; stroke-opacity:1; 
stroke-linecap:round; stroke-linejoin:round;">
</g>
<g style="fill:#000000; fill-opacity:1.0; 
stroke:#000000; stroke-width:0; stroke-opacity:1; 
stroke-linecap:round; stroke-linejoin:round;">
<path style="fill:#000000; fill-opacity:1.0; 
stroke:#000000; stroke-width:0; stroke-opacity:1; 
stroke-linecap:round; stroke-linejoin:round;fill-rule:evenodd;"
d="M 57555.4,20330.9
57559.6,20331.5
57563.8,20332.6
57567.8,20334
57571.6,20335.8
57575.2,20338
57578.7,20340.5
57581.8,20343.4
57584.7,20346.5
57587.2,20350
57589.4,20353.6
57591.2,20357.4
57592.6,20361.4
57593.7,20365.6
57594.3,20369.8
57594.5,20374
57594.5,21358.3
57594.3,21362.5
57593.7,21366.7
57592.6,21370.8
57591.2,21374.8
57589.4,21378.7
57587.2,21382.3
57584.7,21385.7
57581.8,21388.9
57578.7,21391.7
57575.2,21394.3
57571.6,21396.5
57567.8,21398.3
57563.8,21399.7
57559.6,21400.7
57555.4,21401.4
57551.2,21401.6
56763.8,21401.6
56759.5,21401.4
56755.3,21400.7
56751.2,21399.7
56747.2,21398.3
56743.4,21396.5
56739.7,21394.3
56736.3,21391.7
56733.2,21388.9
56730.3,21385.7
56727.8,21382.3
56725.6,21378.7
56723.8,21374.8
56722.3,21370.8
56721.3,21366.7
56720.7,21362.5
56720.5,21358.3
56720.5,20374
56720.7,20369.8
56721.3,20365.6
56722.3,20361.4
56723.8,20357.4
56725.6,20353.6
56727.8,20350
56730.3,20346.5
56733.2,20343.4
56736.3,20340.5
56739.7,20338
56743.4,20335.8
56747.2,20334
56751.2,20332.6
56755.3,20331.5
56759.5,20330.9
56763.8,20330.7
57551.2,20330.7
Z" /> 
</g>
<g >
</g>
<g >
</g>
<g >
</g>
<g >
</g>
<g >
</g>
<g >
</g>
<g >
</g>
<g >
</g>
<g style="fill:#000000; fill-opacity:1.0; 
stroke:#000000; stroke-width:0; stroke-opacity:1; 
stroke-linecap:round; stroke-linejoin:round;">
<path style="fill:#000000; fill-opacity:1.0; 
stroke:#000000; stroke-width:0; stroke-opacity:1; 
stroke-linecap:round; stroke-linejoin:round;fill-rule:evenodd;"
d="M 39112.5,44839.2
39124.9,44841.1
39137.2,44844.1
39149,44848.4
39160.4,44853.8
39171.2,44860.2
39181.4,44867.7
39190.7,44876.2
39199.2,44885.6
39206.7,44895.7
39213.2,44906.5
39218.6,44917.9
39222.8,44929.8
39225.9,44942
39227.7,44954.5
39228.3,44967.1
39228.3,45584.1
39227.7,45596.7
39225.9,45609.2
39222.8,45621.4
39218.6,45633.3
39213.2,45644.7
39206.7,45655.5
39199.2,45665.6
39190.7,45675
39181.4,45683.4
39171.2,45690.9
39160.4,45697.4
39149,45702.8
39137.2,45707.1
39124.9,45710.1
39112.5,45712
39099.9,45712.6
38482.8,45712.6
38470.2,45712
38457.7,45710.1
38445.5,45707.1
38433.6,45702.8
38422.2,45697.4
38411.4,45690.9
38401.3,45683.4
38392,45675
38383.5,45665.6
38376,45655.5
38369.5,45644.7
38364.1,45633.3
38359.9,45621.4
38356.8,45609.2
38354.9,45596.7
38354.3,45584.1
38354.3,44967.1
38354.9,44954.5
38356.8,44942
38359.9,44929.8
38364.1,44917.9
38369.5,44906.5
38376,44895.7
38383.5,44885.6
38392,44876.2
38401.3,44867.7
38411.4,44860.2
38422.2,44853.8
38433.6,44848.4
38445.5,44844.1
38457.7,44841.1
38470.2,44839.2
38482.8,44838.6
39099.9,44838.6
Z" /> 
<circle cx="37791.3" cy="45275.6" r="437.008" /> 
</g>
<g style="fill:#000000; fill-opacity:1.0; 
stroke:#000000; stroke-width:39.3701; stroke-opacity:1; 
stroke-linecap:round; stroke-linejoin:round;">
</g>
<g style="fill:#000000; fill-opacity:1.0; 
stroke:#000000; stroke-width:0; stroke-opacity:1; 
stroke-linecap:round; stroke-linejoin:round;">
<circle cx="36791.3" cy="45275.6" r="437.008" /> 
</g>
<g style="fill:#000000; fill-opacity:1.0; 
stroke:#000000; stroke-width:39.3701; stroke-opacity:1; 
stroke-linecap:round; stroke-linejoin:round;">
</g>
<g style="fill:#000000; fill-opacity:1.0; 
stroke:#000000; stroke-width:0; stroke-opacity:1; 
stroke-linecap:round; stroke-linejoin:round;">
<circle cx="35791.3" cy="45275.6" r="437.008" /> 
</g>
<g style="fill:#000000; fill-opacity:1.0; 
stroke:#000000; stroke-width:39.3701; stroke-opacity:1; 
stroke-linecap:round; stroke-linejoin:round;">
</g>
<g style="fill:#000000; fill-opacity:1.0; 
stroke:#000000; stroke-width:0; stroke-opacity:1; 
stroke-linecap:round; stroke-linejoin:round;">
<circle cx="34791.3" cy="45275.6" r="437.008" /> 
</g>
<g style="fill:#000000; fill-opacity:1.0; 
stroke:#000000; stroke-width:39.3701; stroke-opacity:1; 
stroke-linecap:round; stroke-linejoin:round;">
</g>
<g style="fill:#000000; fill-opacity:1.0; 
stroke:#000000; stroke-width:0; stroke-opacity:1; 
stroke-linecap:round; stroke-linejoin:round;">
<circle cx="33791.3" cy="45275.6" r="437.008" /> 
</g>
<g style="fill:#000000; fill-opacity:1.0; 
stroke:#000000; stroke-width:39.3701; stroke-opacity:1; 
stroke-linecap:round; stroke-linejoin:round;">
</g>
<g style="fill:#000000; fill-opacity:1.0; 
stroke:#000000; stroke-width:0; stroke-opacity:1; 
stroke-linecap:round; stroke-linejoin:round;">
<circle cx="32791.3" cy="45275.6" r="437.008" /> 
</g>
<g style="fill:#000000; fill-opacity:1.0; 
stroke:#000000; stroke-width:39.3701; stroke-opacity:1; 
stroke-linecap:round; stroke-linejoin:round;">
</g>
<g style="fill:#000000; fill-opacity:1.0; 
stroke:#000000; stroke-width:0; stroke-opacity:1; 
stroke-linecap:round; stroke-linejoin:round;">
<circle cx="31791.3" cy="45275.6" r="437.008" /> 
</g>
<g style="fill:#000000; fill-opacity:1.0; 
stroke:#000000; stroke-width:39.3701; stroke-opacity:1; 
stroke-linecap:round; stroke-linejoin:round;">
</g>
<g style="fill:#000000; fill-opacity:1.0; 
stroke:#000000; stroke-width:0; stroke-opacity:1; 
stroke-linecap:round; stroke-linejoin:round;">
<circle cx="30791.3" cy="45275.6" r="437.008" /> 
</g>
<g style="fill:#000000; fill-opacity:1.0; 
stroke:#000000; stroke-width:39.3701; stroke-opacity:1; 
stroke-linecap:round; stroke-linejoin:round;">
</g>
<g style="fill:#000000; fill-opacity:1.0; 
stroke:#000000; stroke-width:0; stroke-opacity:1; 
stroke-linecap:round; stroke-linejoin:round;">
<circle cx="29791.3" cy="45275.6" r="437.008" /> 
</g>
<g style="fill:#000000; fill-opacity:1.0; 
stroke:#000000; stroke-width:39.3701; stroke-opacity:1; 
stroke-linecap:round; stroke-linejoin:round;">
</g>
<g style="fill:#000000; fill-opacity:1.0; 
stroke:#000000; stroke-width:0; stroke-opacity:1; 
stroke-linecap:round; stroke-linejoin:round;">
<circle cx="38791.3" cy="46275.6" r="437.008" /> 
</g>
<g style="fill:#000000; fill-opacity:1.0; 
stroke:#000000; stroke-width:39.3701; stroke-opacity:1; 
stroke-linecap:round; stroke-linejoin:round;">
</g>
<g style="fill:#000000; fill-opacity:1.0; 
stroke:#000000; stroke-width:0; stroke-opacity:1; 
stroke-linecap:round; stroke-linejoin:round;">
<circle cx="37791.3" cy="46275.6" r="437.008" /> 
</g>
<g style="fill:#000000; fill-opacity:1.0; 
stroke:#000000; stroke-width:39.3701; stroke-opacity:1; 
stroke-linecap:round; stroke-linejoin:round;">
</g>
<g style="fill:#000000; fill-opacity:1.0; 
stroke:#000000; stroke-width:0; stroke-opacity:1; 
stroke-linecap:round; stroke-linejoin:round;">
<circle cx="36791.3" cy="46275.6" r="437.008" /> 
</g>
<g style="fill:#000000; fill-opacity:1.0; 
stroke:#000000; stroke-width:39.3701; stroke-opacity:1; 
stroke-linecap:round; stroke-linejoin:round;">
</g>
<g style="fill:#000000; fill-opacity:1.0; 
stroke:#000000; stroke-width:0; stroke-opacity:1; 
stroke-linecap:round; stroke-linejoin:round;">
<circle cx="35791.3" cy="46275.6" r="437.008" /> 
</g>
<g style="fill:#000000; fill-opacity:1.0; 
stroke:#000000; stroke-width:39.3701; stroke-opacity:1; 
stroke-linecap:round; stroke-linejoin:round;">
</g>
<g style="fill:#000000; fill-opacity:1.0; 
stroke:#000000; stroke-width:0; stroke-opacity:1; 
stroke-linecap:round; stroke-linejoin:round;">
<circle cx="34791.3" cy="46275.6" r="437.008" /> 
</g>
<g style="fill:#000000; fill-opacity:1.0; 
stroke:#000000; stroke-width:39.3701; stroke-opacity:1; 
stroke-linecap:round; stroke-linejoin:round;">
</g>
<g style="fill:#000000; fill-opacity:1.0; 
stroke:#000000; stroke-width:0; stroke-opacity:1; 
stroke-linecap:round; stroke-linejoin:round;">
<circle cx="33791.3" cy="46275.6" r="437.008" /> 
</g>
<g style="fill:#000000; fill-opacity:1.0; 
stroke:#000000; stroke-width:39.3701; stroke-opacity:1; 
stroke-linecap:round; stroke-linejoin:round;">
</g>
<g style="fill:#000000; fill-opacity:1.0; 
stroke:#000000; stroke-width:0; stroke-opacity:1; 
stroke-linecap:round; stroke-linejoin:round;">
<circle cx="32791.3" cy="46275.6" r="437.008" /> 
</g>
<g style="fill:#000000; fill-opacity:1.0; 
stroke:#000000; stroke-width:39.3701; stroke-opacity:1; 
stroke-linecap:round; stroke-linejoin:round;">
</g>
<g style="fill:#000000; fill-opacity:1.0; 
stroke:#000000; stroke-width:0; stroke-opacity:1; 
stroke-linecap:round; stroke-linejoin:round;">
<circle cx="31791.3" cy="46275.6" r="437.008" /> 
</g>
<g style="fill:#000000; fill-opacity:1.0; 
stroke:#000000; stroke-width:39.3701; stroke-opacity:1; 
stroke-linecap:round; stroke-linejoin:round;">
</g>
<g style="fill:#000000; fill-opacity:1.0; 
stroke:#000000; stroke-width:0; stroke-opacity:1; 
stroke-linecap:round; stroke-linejoin:round;">
<circle cx="30791.3" cy="46275.6" r="437.008" /> 
</g>
<g style="fill:#000000; fill-opacity:1.0; 
stroke:#000000; stroke-width:39.3701; stroke-opacity:1; 
stroke-linecap:round; stroke-linejoin:round;">
</g>
<g style="fill:#000000; fill-opacity:1.0; 
stroke:#000000; stroke-width:0; stroke-opacity:1; 
stroke-linecap:round; stroke-linejoin:round;">
<circle cx="29791.3" cy="46275.6" r="437.008" /> 
</g>
<g style="fill:#000000; fill-opacity:1.0; 
stroke:#000000; stroke-width:39.3701; stroke-opacity:1; 
stroke-linecap:round; stroke-linejoin:round;">
</g>
<g >
</g>
<g >
</g>
<g >
</g>
<g >
</g>
<g style="fill:#000000; fill-opacity:1.0; 
stroke:#000000; stroke-width:39.3701; stroke-opacity:1; 
stroke-linecap:round; stroke-linejoin:round;">
</g>
<g style="fill:#000000; fill-opacity:1.0; 
stroke:#000000; stroke-width:0; stroke-opacity:1; 
stroke-linecap:round; stroke-linejoin:round;">
<path style="fill:#000000; fill-opacity:1.0; 
stroke:#000000; stroke-width:0; stroke-opacity:1; 
stroke-linecap:round; stroke-linejoin:round;fill-rule:evenodd;"
d="M 60407.8,42830.9
60412,42831.5
60416.1,42832.6
60420.1,42834
60424,42835.8
60427.6,42838
60431,42840.5
60434.2,42843.4
60437,42846.5
60439.6,42850
60441.7,42853.6
60443.6,42857.4
60445,42861.4
60446,42865.6
60446.6,42869.8
60446.9,42874
60446.9,43189
60446.6,43193.2
60446,43197.4
60445,43201.5
60443.6,43205.5
60441.7,43209.4
60439.6,43213
60437,43216.4
60434.2,43219.6
60431,43222.5
60427.6,43225
60424,43227.2
60420.1,43229
60416.1,43230.4
60412,43231.5
60407.8,43232.1
60403.5,43232.3
60206.7,43232.3
60202.4,43232.1
60198.2,43231.5
60194.1,43230.4
60190.1,43229
60186.3,43227.2
60182.6,43225
60179.2,43222.5
60176.1,43219.6
60173.2,43216.4
60170.7,43213
60168.5,43209.4
60166.7,43205.5
60165.3,43201.5
60164.2,43197.4
60163.6,43193.2
60163.4,43189
60163.4,42874
60163.6,42869.8
60164.2,42865.6
60165.3,42861.4
60166.7,42857.4
60168.5,42853.6
60170.7,42850
60173.2,42846.5
60176.1,42843.4
60179.2,42840.5
60182.6,42838
60186.3,42835.8
60190.1,42834
60194.1,42832.6
60198.2,42831.5
60202.4,42830.9
60206.7,42830.7
60403.5,42830.7
Z" /> 
<path style="fill:#000000; fill-opacity:1.0; 
stroke:#000000; stroke-width:0; stroke-opacity:1; 
stroke-linecap:round; stroke-linejoin:round;fill-rule:evenodd;"
d="M 60073.1,42830.9
60077.3,42831.5
60081.5,42832.6
60085.5,42834
60089.3,42835.8
60093,42838
60096.4,42840.5
60099.5,42843.4
60102.4,42846.5
60104.9,42850
60107.1,42853.6
60108.9,42857.4
60110.3,42861.4
60111.4,42865.6
60112,42869.8
60112.2,42874
60112.2,43189
60112,43193.2
60111.4,43197.4
60110.3,43201.5
60108.9,43205.5
60107.1,43209.4
60104.9,43213
60102.4,43216.4
60099.5,43219.6
60096.4,43222.5
60093,43225
60089.3,43227.2
60085.5,43229
60081.5,43230.4
60077.3,43231.5
60073.1,43232.1
60068.9,43232.3
59911.4,43232.3
59907.2,43232.1
59903,43231.5
59898.8,43230.4
59894.8,43229
59891,43227.2
59887.4,43225
59883.9,43222.5
59880.8,43219.6
59877.9,43216.4
59875.4,43213
59873.2,43209.4
59871.4,43205.5
59870,43201.5
59868.9,43197.4
59868.3,43193.2
59868.1,43189
59868.1,42874
59868.3,42869.8
59868.9,42865.6
59870,42861.4
59871.4,42857.4
59873.2,42853.6
59875.4,42850
59877.9,42846.5
59880.8,42843.4
59883.9,42840.5
59887.4,42838
59891,42835.8
59894.8,42834
59898.8,42832.6
59903,42831.5
59907.2,42830.9
59911.4,42830.7
60068.9,42830.7
Z" /> 
<path style="fill:#000000; fill-opacity:1.0; 
stroke:#000000; stroke-width:0; stroke-opacity:1; 
stroke-linecap:round; stroke-linejoin:round;fill-rule:evenodd;"
d="M 59462.9,42830.9
59467.1,42831.5
59471.2,42832.6
59475.2,42834
59479.1,42835.8
59482.7,42838
59486.1,42840.5
59489.3,42843.4
59492.1,42846.5
59494.7,42850
59496.9,42853.6
59498.7,42857.4
59500.1,42861.4
59501.1,42865.6
59501.8,42869.8
59502,42874
59502,43189
59501.8,43193.2
59501.1,43197.4
59500.1,43201.5
59498.7,43205.5
59496.9,43209.4
59494.7,43213
59492.1,43216.4
59489.3,43219.6
59486.1,43222.5
59482.7,43225
59479.1,43227.2
59475.2,43229
59471.2,43230.4
59467.1,43231.5
59462.9,43232.1
59458.7,43232.3
59261.8,43232.3
59257.6,43232.1
59253.4,43231.5
59249.2,43230.4
59245.2,43229
59241.4,43227.2
59237.8,43225
59234.3,43222.5
59231.2,43219.6
59228.3,43216.4
59225.8,43213
59223.6,43209.4
59221.8,43205.5
59220.4,43201.5
59219.3,43197.4
59218.7,43193.2
59218.5,43189
59218.5,42874
59218.7,42869.8
59219.3,42865.6
59220.4,42861.4
59221.8,42857.4
59223.6,42853.6
59225.8,42850
59228.3,42846.5
59231.2,42843.4
59234.3,42840.5
59237.8,42838
59241.4,42835.8
59245.2,42834
59249.2,42832.6
59253.4,42831.5
59257.6,42830.9
59261.8,42830.7
59458.7,42830.7
Z" /> 
<path style="fill:#000000; fill-opacity:1.0; 
stroke:#000000; stroke-width:0; stroke-opacity:1; 
stroke-linecap:round; stroke-linejoin:round;fill-rule:evenodd;"
d="M 59758.2,42830.9
59762.4,42831.5
59766.5,42832.6
59770.5,42834
59774.4,42835.8
59778,42838
59781.4,42840.5
59784.6,42843.4
59787.4,42846.5
59789.9,42850
59792.1,42853.6
59793.9,42857.4
59795.4,42861.4
59796.4,42865.6
59797,42869.8
59797.2,42874
59797.2,43189
59797,43193.2
59796.4,43197.4
59795.4,43201.5
59793.9,43205.5
59792.1,43209.4
59789.9,43213
59787.4,43216.4
59784.6,43219.6
59781.4,43222.5
59778,43225
59774.4,43227.2
59770.5,43229
59766.5,43230.4
59762.4,43231.5
59758.2,43232.1
59753.9,43232.3
59596.5,43232.3
59592.2,43232.1
59588,43231.5
59583.9,43230.4
59579.9,43229
59576,43227.2
59572.4,43225
59569,43222.5
59565.8,43219.6
59563,43216.4
59560.4,43213
59558.3,43209.4
59556.4,43205.5
59555,43201.5
59554,43197.4
59553.4,43193.2
59553.1,43189
59553.1,42874
59553.4,42869.8
59554,42865.6
59555,42861.4
59556.4,42857.4
59558.3,42853.6
59560.4,42850
59563,42846.5
59565.8,42843.4
59569,42840.5
59572.4,42838
59576,42835.8
59579.9,42834
59583.9,42832.6
59588,42831.5
59592.2,42830.9
59596.5,42830.7
59753.9,42830.7
Z" /> 
<path style="fill:#000000; fill-opacity:1.0; 
stroke:#000000; stroke-width:0; stroke-opacity:1; 
stroke-linecap:round; stroke-linejoin:round;fill-rule:evenodd;"
d="M 60407.8,42122.3
60412,42122.9
60416.1,42123.9
60420.1,42125.3
60424,42127.2
60427.6,42129.3
60431,42131.9
60434.2,42134.7
60437,42137.9
60439.6,42141.3
60441.7,42144.9
60443.6,42148.8
60445,42152.8
60446,42156.9
60446.6,42161.1
60446.9,42165.4
60446.9,42480.3
60446.6,42484.6
60446,42488.8
60445,42492.9
60443.6,42496.9
60441.7,42500.7
60439.6,42504.4
60437,42507.8
60434.2,42510.9
60431,42513.8
60427.6,42516.3
60424,42518.5
60420.1,42520.3
60416.1,42521.8
60412,42522.8
60407.8,42523.4
60403.5,42523.6
60206.7,42523.6
60202.4,42523.4
60198.2,42522.8
60194.1,42521.8
60190.1,42520.3
60186.3,42518.5
60182.6,42516.3
60179.2,42513.8
60176.1,42510.9
60173.2,42507.8
60170.7,42504.4
60168.5,42500.7
60166.7,42496.9
60165.3,42492.9
60164.2,42488.8
60163.6,42484.6
60163.4,42480.3
60163.4,42165.4
60163.6,42161.1
60164.2,42156.9
60165.3,42152.8
60166.7,42148.8
60168.5,42144.9
60170.7,42141.3
60173.2,42137.9
60176.1,42134.7
60179.2,42131.9
60182.6,42129.3
60186.3,42127.2
60190.1,42125.3
60194.1,42123.9
60198.2,42122.9
60202.4,42122.3
60206.7,42122
60403.5,42122
Z" /> 
<path style="fill:#000000; fill-opacity:1.0; 
stroke:#000000; stroke-width:0; stroke-opacity:1; 
stroke-linecap:round; stroke-linejoin:round;fill-rule:evenodd;"
d="M 59758.2,42122.3
59762.4,42122.9
59766.5,42123.9
59770.5,42125.3
59774.4,42127.2
59778,42129.3
59781.4,42131.9
59784.6,42134.7
59787.4,42137.9
59789.9,42141.3
59792.1,42144.9
59793.9,42148.8
59795.4,42152.8
59796.4,42156.9
59797,42161.1
59797.2,42165.4
59797.2,42480.3
59797,42484.6
59796.4,42488.8
59795.4,42492.9
59793.9,42496.9
59792.1,42500.7
59789.9,42504.4
59787.4,42507.8
59784.6,42510.9
59781.4,42513.8
59778,42516.3
59774.4,42518.5
59770.5,42520.3
59766.5,42521.8
59762.4,42522.8
59758.2,42523.4
59753.9,42523.6
59596.5,42523.6
59592.2,42523.4
59588,42522.8
59583.9,42521.8
59579.9,42520.3
59576,42518.5
59572.4,42516.3
59569,42513.8
59565.8,42510.9
59563,42507.8
59560.4,42504.4
59558.3,42500.7
59556.4,42496.9
59555,42492.9
59554,42488.8
59553.4,42484.6
59553.1,42480.3
59553.1,42165.4
59553.4,42161.1
59554,42156.9
59555,42152.8
59556.4,42148.8
59558.3,42144.9
59560.4,42141.3
59563,42137.9
59565.8,42134.7
59569,42131.9
59572.4,42129.3
59576,42127.2
59579.9,42125.3
59583.9,42123.9
59588,42122.9
59592.2,42122.3
59596.5,42122
59753.9,42122
Z" /> 
<path style="fill:#000000; fill-opacity:1.0; 
stroke:#000000; stroke-width:0; stroke-opacity:1; 
stroke-linecap:round; stroke-linejoin:round;fill-rule:evenodd;"
d="M 60073.1,42122.3
60077.3,42122.9
60081.5,42123.9
60085.5,42125.3
60089.3,42127.2
60093,42129.3
60096.4,42131.9
60099.5,42134.7
60102.4,42137.9
60104.9,42141.3
60107.1,42144.9
60108.9,42148.8
60110.3,42152.8
60111.4,42156.9
60112,42161.1
60112.2,42165.4
60112.2,42480.3
60112,42484.6
60111.4,42488.8
60110.3,42492.9
60108.9,42496.9
60107.1,42500.7
60104.9,42504.4
60102.4,42507.8
60099.5,42510.9
60096.4,42513.8
60093,42516.3
60089.3,42518.5
60085.5,42520.3
60081.5,42521.8
60077.3,42522.8
60073.1,42523.4
60068.9,42523.6
59911.4,42523.6
59907.2,42523.4
59903,42522.8
59898.8,42521.8
59894.8,42520.3
59891,42518.5
59887.4,42516.3
59883.9,42513.8
59880.8,42510.9
59877.9,42507.8
59875.4,42504.4
59873.2,42500.7
59871.4,42496.9
59870,42492.9
59868.9,42488.8
59868.3,42484.6
59868.1,42480.3
59868.1,42165.4
59868.3,42161.1
59868.9,42156.9
59870,42152.8
59871.4,42148.8
59873.2,42144.9
59875.4,42141.3
59877.9,42137.9
59880.8,42134.7
59883.9,42131.9
59887.4,42129.3
59891,42127.2
59894.8,42125.3
59898.8,42123.9
59903,42122.9
59907.2,42122.3
59911.4,42122
60068.9,42122
Z" /> 
<path style="fill:#000000; fill-opacity:1.0; 
stroke:#000000; stroke-width:0; stroke-opacity:1; 
stroke-linecap:round; stroke-linejoin:round;fill-rule:evenodd;"
d="M 59462.9,42122.3
59467.1,42122.9
59471.2,42123.9
59475.2,42125.3
59479.1,42127.2
59482.7,42129.3
59486.1,42131.9
59489.3,42134.7
59492.1,42137.9
59494.7,42141.3
59496.9,42144.9
59498.7,42148.8
59500.1,42152.8
59501.1,42156.9
59501.8,42161.1
59502,42165.4
59502,42480.3
59501.8,42484.6
59501.1,42488.8
59500.1,42492.9
59498.7,42496.9
59496.9,42500.7
59494.7,42504.4
59492.1,42507.8
59489.3,42510.9
59486.1,42513.8
59482.7,42516.3
59479.1,42518.5
59475.2,42520.3
59471.2,42521.8
59467.1,42522.8
59462.9,42523.4
59458.7,42523.6
59261.8,42523.6
59257.6,42523.4
59253.4,42522.8
59249.2,42521.8
59245.2,42520.3
59241.4,42518.5
59237.8,42516.3
59234.3,42513.8
59231.2,42510.9
59228.3,42507.8
59225.8,42504.4
59223.6,42500.7
59221.8,42496.9
59220.4,42492.9
59219.3,42488.8
59218.7,42484.6
59218.5,42480.3
59218.5,42165.4
59218.7,42161.1
59219.3,42156.9
59220.4,42152.8
59221.8,42148.8
59223.6,42144.9
59225.8,42141.3
59228.3,42137.9
59231.2,42134.7
59234.3,42131.9
59237.8,42129.3
59241.4,42127.2
59245.2,42125.3
59249.2,42123.9
59253.4,42122.9
59257.6,42122.3
59261.8,42122
59458.7,42122
Z" /> 
</g>
<g >
</g>
<g style="fill:#000000; fill-opacity:1.0; 
stroke:#000000; stroke-width:0; stroke-opacity:1; 
stroke-linecap:round; stroke-linejoin:round;">
<path style="fill:#000000; fill-opacity:1.0; 
stroke:#000000; stroke-width:0; stroke-opacity:1; 
stroke-linecap:round; stroke-linejoin:round;fill-rule:evenodd;"
d="M 55220.8,42830.9
55225,42831.5
55229.1,42832.6
55233.1,42834
55237,42835.8
55240.6,42838
55244,42840.5
55247.2,42843.4
55250,42846.5
55252.5,42850
55254.7,42853.6
55256.5,42857.4
55258,42861.4
55259,42865.6
55259.6,42869.8
55259.8,42874
55259.8,43189
55259.6,43193.2
55259,43197.4
55258,43201.5
55256.5,43205.5
55254.7,43209.4
55252.5,43213
55250,43216.4
55247.2,43219.6
55244,43222.5
55240.6,43225
55237,43227.2
55233.1,43229
55229.1,43230.4
55225,43231.5
55220.8,43232.1
55216.5,43232.3
55019.7,43232.3
55015.4,43232.1
55011.2,43231.5
55007.1,43230.4
55003.1,43229
54999.3,43227.2
54995.6,43225
54992.2,43222.5
54989.1,43219.6
54986.2,43216.4
54983.7,43213
54981.5,43209.4
54979.7,43205.5
54978.2,43201.5
54977.2,43197.4
54976.6,43193.2
54976.4,43189
54976.4,42874
54976.6,42869.8
54977.2,42865.6
54978.2,42861.4
54979.7,42857.4
54981.5,42853.6
54983.7,42850
54986.2,42846.5
54989.1,42843.4
54992.2,42840.5
54995.6,42838
54999.3,42835.8
55003.1,42834
55007.1,42832.6
55011.2,42831.5
55015.4,42830.9
55019.7,42830.7
55216.5,42830.7
Z" /> 
<path style="fill:#000000; fill-opacity:1.0; 
stroke:#000000; stroke-width:0; stroke-opacity:1; 
stroke-linecap:round; stroke-linejoin:round;fill-rule:evenodd;"
d="M 54886.1,42830.9
54890.3,42831.5
54894.5,42832.6
54898.5,42834
54902.3,42835.8
54905.9,42838
54909.4,42840.5
54912.5,42843.4
54915.4,42846.5
54917.9,42850
54920.1,42853.6
54921.9,42857.4
54923.3,42861.4
54924.4,42865.6
54925,42869.8
54925.2,42874
54925.2,43189
54925,43193.2
54924.4,43197.4
54923.3,43201.5
54921.9,43205.5
54920.1,43209.4
54917.9,43213
54915.4,43216.4
54912.5,43219.6
54909.4,43222.5
54905.9,43225
54902.3,43227.2
54898.5,43229
54894.5,43230.4
54890.3,43231.5
54886.1,43232.1
54881.9,43232.3
54724.4,43232.3
54720.2,43232.1
54716,43231.5
54711.8,43230.4
54707.8,43229
54704,43227.2
54700.3,43225
54696.9,43222.5
54693.8,43219.6
54690.9,43216.4
54688.4,43213
54686.2,43209.4
54684.4,43205.5
54683,43201.5
54681.9,43197.4
54681.3,43193.2
54681.1,43189
54681.1,42874
54681.3,42869.8
54681.9,42865.6
54683,42861.4
54684.4,42857.4
54686.2,42853.6
54688.4,42850
54690.9,42846.5
54693.8,42843.4
54696.9,42840.5
54700.3,42838
54704,42835.8
54707.8,42834
54711.8,42832.6
54716,42831.5
54720.2,42830.9
54724.4,42830.7
54881.9,42830.7
Z" /> 
<path style="fill:#000000; fill-opacity:1.0; 
stroke:#000000; stroke-width:0; stroke-opacity:1; 
stroke-linecap:round; stroke-linejoin:round;fill-rule:evenodd;"
d="M 54275.9,42830.9
54280.1,42831.5
54284.2,42832.6
54288.2,42834
54292.1,42835.8
54295.7,42838
54299.1,42840.5
54302.3,42843.4
54305.1,42846.5
54307.7,42850
54309.8,42853.6
54311.7,42857.4
54313.1,42861.4
54314.1,42865.6
54314.8,42869.8
54315,42874
54315,43189
54314.8,43193.2
54314.1,43197.4
54313.1,43201.5
54311.7,43205.5
54309.8,43209.4
54307.7,43213
54305.1,43216.4
54302.3,43219.6
54299.1,43222.5
54295.7,43225
54292.1,43227.2
54288.2,43229
54284.2,43230.4
54280.1,43231.5
54275.9,43232.1
54271.7,43232.3
54074.8,43232.3
54070.6,43232.1
54066.4,43231.5
54062.2,43230.4
54058.2,43229
54054.4,43227.2
54050.7,43225
54047.3,43222.5
54044.2,43219.6
54041.3,43216.4
54038.8,43213
54036.6,43209.4
54034.8,43205.5
54033.4,43201.5
54032.3,43197.4
54031.7,43193.2
54031.5,43189
54031.5,42874
54031.7,42869.8
54032.3,42865.6
54033.4,42861.4
54034.8,42857.4
54036.6,42853.6
54038.8,42850
54041.3,42846.5
54044.2,42843.4
54047.3,42840.5
54050.7,42838
54054.4,42835.8
54058.2,42834
54062.2,42832.6
54066.4,42831.5
54070.6,42830.9
54074.8,42830.7
54271.7,42830.7
Z" /> 
<path style="fill:#000000; fill-opacity:1.0; 
stroke:#000000; stroke-width:0; stroke-opacity:1; 
stroke-linecap:round; stroke-linejoin:round;fill-rule:evenodd;"
d="M 54571.2,42830.9
54575.4,42831.5
54579.5,42832.6
54583.5,42834
54587.3,42835.8
54591,42838
54594.4,42840.5
54597.6,42843.4
54600.4,42846.5
54602.9,42850
54605.1,42853.6
54606.9,42857.4
54608.4,42861.4
54609.4,42865.6
54610,42869.8
54610.2,42874
54610.2,43189
54610,43193.2
54609.4,43197.4
54608.4,43201.5
54606.9,43205.5
54605.1,43209.4
54602.9,43213
54600.4,43216.4
54597.6,43219.6
54594.4,43222.5
54591,43225
54587.3,43227.2
54583.5,43229
54579.5,43230.4
54575.4,43231.5
54571.2,43232.1
54566.9,43232.3
54409.4,43232.3
54405.2,43232.1
54401,43231.5
54396.9,43230.4
54392.9,43229
54389,43227.2
54385.4,43225
54382,43222.5
54378.8,43219.6
54376,43216.4
54373.4,43213
54371.3,43209.4
54369.4,43205.5
54368,43201.5
54367,43197.4
54366.4,43193.2
54366.1,43189
54366.1,42874
54366.4,42869.8
54367,42865.6
54368,42861.4
54369.4,42857.4
54371.3,42853.6
54373.4,42850
54376,42846.5
54378.8,42843.4
54382,42840.5
54385.4,42838
54389,42835.8
54392.9,42834
54396.9,42832.6
54401,42831.5
54405.2,42830.9
54409.4,42830.7
54566.9,42830.7
Z" /> 
<path style="fill:#000000; fill-opacity:1.0; 
stroke:#000000; stroke-width:0; stroke-opacity:1; 
stroke-linecap:round; stroke-linejoin:round;fill-rule:evenodd;"
d="M 55220.8,42122.3
55225,42122.9
55229.1,42123.9
55233.1,42125.3
55237,42127.2
55240.6,42129.3
55244,42131.9
55247.2,42134.7
55250,42137.9
55252.5,42141.3
55254.7,42144.9
55256.5,42148.8
55258,42152.8
55259,42156.9
55259.6,42161.1
55259.8,42165.4
55259.8,42480.3
55259.6,42484.6
55259,42488.8
55258,42492.9
55256.5,42496.9
55254.7,42500.7
55252.5,42504.4
55250,42507.8
55247.2,42510.9
55244,42513.8
55240.6,42516.3
55237,42518.5
55233.1,42520.3
55229.1,42521.8
55225,42522.8
55220.8,42523.4
55216.5,42523.6
55019.7,42523.6
55015.4,42523.4
55011.2,42522.8
55007.1,42521.8
55003.1,42520.3
54999.3,42518.5
54995.6,42516.3
54992.2,42513.8
54989.1,42510.9
54986.2,42507.8
54983.7,42504.4
54981.5,42500.7
54979.7,42496.9
54978.2,42492.9
54977.2,42488.8
54976.6,42484.6
54976.4,42480.3
54976.4,42165.4
54976.6,42161.1
54977.2,42156.9
54978.2,42152.8
54979.7,42148.8
54981.5,42144.9
54983.7,42141.3
54986.2,42137.9
54989.1,42134.7
54992.2,42131.9
54995.6,42129.3
54999.3,42127.2
55003.1,42125.3
55007.1,42123.9
55011.2,42122.9
55015.4,42122.3
55019.7,42122
55216.5,42122
Z" /> 
<path style="fill:#000000; fill-opacity:1.0; 
stroke:#000000; stroke-width:0; stroke-opacity:1; 
stroke-linecap:round; stroke-linejoin:round;fill-rule:evenodd;"
d="M 54571.2,42122.3
54575.4,42122.9
54579.5,42123.9
54583.5,42125.3
54587.3,42127.2
54591,42129.3
54594.4,42131.9
54597.6,42134.7
54600.4,42137.9
54602.9,42141.3
54605.1,42144.9
54606.9,42148.8
54608.4,42152.8
54609.4,42156.9
54610,42161.1
54610.2,42165.4
54610.2,42480.3
54610,42484.6
54609.4,42488.8
54608.4,42492.9
54606.9,42496.9
54605.1,42500.7
54602.9,42504.4
54600.4,42507.8
54597.6,42510.9
54594.4,42513.8
54591,42516.3
54587.3,42518.5
54583.5,42520.3
54579.5,42521.8
54575.4,42522.8
54571.2,42523.4
54566.9,42523.6
54409.4,42523.6
54405.2,42523.4
54401,42522.8
54396.9,42521.8
54392.9,42520.3
54389,42518.5
54385.4,42516.3
54382,42513.8
54378.8,42510.9
54376,42507.8
54373.4,42504.4
54371.3,42500.7
54369.4,42496.9
54368,42492.9
54367,42488.8
54366.4,42484.6
54366.1,42480.3
54366.1,42165.4
54366.4,42161.1
54367,42156.9
54368,42152.8
54369.4,42148.8
54371.3,42144.9
54373.4,42141.3
54376,42137.9
54378.8,42134.7
54382,42131.9
54385.4,42129.3
54389,42127.2
54392.9,42125.3
54396.9,42123.9
54401,42122.9
54405.2,42122.3
54409.4,42122
54566.9,42122
Z" /> 
<path style="fill:#000000; fill-opacity:1.0; 
stroke:#000000; stroke-width:0; stroke-opacity:1; 
stroke-linecap:round; stroke-linejoin:round;fill-rule:evenodd;"
d="M 54886.1,42122.3
54890.3,42122.9
54894.5,42123.9
54898.5,42125.3
54902.3,42127.2
54905.9,42129.3
54909.4,42131.9
54912.5,42134.7
54915.4,42137.9
54917.9,42141.3
54920.1,42144.9
54921.9,42148.8
54923.3,42152.8
54924.4,42156.9
54925,42161.1
54925.2,42165.4
54925.2,42480.3
54925,42484.6
54924.4,42488.8
54923.3,42492.9
54921.9,42496.9
54920.1,42500.7
54917.9,42504.4
54915.4,42507.8
54912.5,42510.9
54909.4,42513.8
54905.9,42516.3
54902.3,42518.5
54898.5,42520.3
54894.5,42521.8
54890.3,42522.8
54886.1,42523.4
54881.9,42523.6
54724.4,42523.6
54720.2,42523.4
54716,42522.8
54711.8,42521.8
54707.8,42520.3
54704,42518.5
54700.3,42516.3
54696.9,42513.8
54693.8,42510.9
54690.9,42507.8
54688.4,42504.4
54686.2,42500.7
54684.4,42496.9
54683,42492.9
54681.9,42488.8
54681.3,42484.6
54681.1,42480.3
54681.1,42165.4
54681.3,42161.1
54681.9,42156.9
54683,42152.8
54684.4,42148.8
54686.2,42144.9
54688.4,42141.3
54690.9,42137.9
54693.8,42134.7
54696.9,42131.9
54700.3,42129.3
54704,42127.2
54707.8,42125.3
54711.8,42123.9
54716,42122.9
54720.2,42122.3
54724.4,42122
54881.9,42122
Z" /> 
<path style="fill:#000000; fill-opacity:1.0; 
stroke:#000000; stroke-width:0; stroke-opacity:1; 
stroke-linecap:round; stroke-linejoin:round;fill-rule:evenodd;"
d="M 54275.9,42122.3
54280.1,42122.9
54284.2,42123.9
54288.2,42125.3
54292.1,42127.2
54295.7,42129.3
54299.1,42131.9
54302.3,42134.7
54305.1,42137.9
54307.7,42141.3
54309.8,42144.9
54311.7,42148.8
54313.1,42152.8
54314.1,42156.9
54314.8,42161.1
54315,42165.4
54315,42480.3
54314.8,42484.6
54314.1,42488.8
54313.1,42492.9
54311.7,42496.9
54309.8,42500.7
54307.7,42504.4
54305.1,42507.8
54302.3,42510.9
54299.1,42513.8
54295.7,42516.3
54292.1,42518.5
54288.2,42520.3
54284.2,42521.8
54280.1,42522.8
54275.9,42523.4
54271.7,42523.6
54074.8,42523.6
54070.6,42523.4
54066.4,42522.8
54062.2,42521.8
54058.2,42520.3
54054.4,42518.5
54050.7,42516.3
54047.3,42513.8
54044.2,42510.9
54041.3,42507.8
54038.8,42504.4
54036.6,42500.7
54034.8,42496.9
54033.4,42492.9
54032.3,42488.8
54031.7,42484.6
54031.5,42480.3
54031.5,42165.4
54031.7,42161.1
54032.3,42156.9
54033.4,42152.8
54034.8,42148.8
54036.6,42144.9
54038.8,42141.3
54041.3,42137.9
54044.2,42134.7
54047.3,42131.9
54050.7,42129.3
54054.4,42127.2
54058.2,42125.3
54062.2,42123.9
54066.4,42122.9
54070.6,42122.3
54074.8,42122
54271.7,42122
Z" /> 
</g>
<g >
</g>
<g >
</g>
<g style="fill:#000000; fill-opacity:1.0; 
stroke:#000000; stroke-width:0; stroke-opacity:1; 
stroke-linecap:round; stroke-linejoin:round;">
<path style="fill:#000000; fill-opacity:1.0; 
stroke:#000000; stroke-width:0; stroke-opacity:1; 
stroke-linecap:round; stroke-linejoin:round;fill-rule:evenodd;"
d="M 45260.2,42830.9
45264.4,42831.5
45268.5,42832.6
45272.5,42834
45276.3,42835.8
45280,42838
45283.4,42840.5
45286.5,42843.4
45289.4,42846.5
45291.9,42850
45294.1,42853.6
45295.9,42857.4
45297.3,42861.4
45298.4,42865.6
45299,42869.8
45299.2,42874
45299.2,43189
45299,43193.2
45298.4,43197.4
45297.3,43201.5
45295.9,43205.5
45294.1,43209.4
45291.9,43213
45289.4,43216.4
45286.5,43219.6
45283.4,43222.5
45280,43225
45276.3,43227.2
45272.5,43229
45268.5,43230.4
45264.4,43231.5
45260.2,43232.1
45255.9,43232.3
45059.1,43232.3
45054.8,43232.1
45050.6,43231.5
45046.5,43230.4
45042.5,43229
45038.6,43227.2
45035,43225
45031.6,43222.5
45028.4,43219.6
45025.6,43216.4
45023,43213
45020.9,43209.4
45019,43205.5
45017.6,43201.5
45016.6,43197.4
45016,43193.2
45015.7,43189
45015.7,42874
45016,42869.8
45016.6,42865.6
45017.6,42861.4
45019,42857.4
45020.9,42853.6
45023,42850
45025.6,42846.5
45028.4,42843.4
45031.6,42840.5
45035,42838
45038.6,42835.8
45042.5,42834
45046.5,42832.6
45050.6,42831.5
45054.8,42830.9
45059.1,42830.7
45255.9,42830.7
Z" /> 
<path style="fill:#000000; fill-opacity:1.0; 
stroke:#000000; stroke-width:0; stroke-opacity:1; 
stroke-linecap:round; stroke-linejoin:round;fill-rule:evenodd;"
d="M 44925.5,42830.9
44929.7,42831.5
44933.8,42832.6
44937.8,42834
44941.7,42835.8
44945.3,42838
44948.7,42840.5
44951.9,42843.4
44954.7,42846.5
44957.3,42850
44959.5,42853.6
44961.3,42857.4
44962.7,42861.4
44963.7,42865.6
44964.4,42869.8
44964.6,42874
44964.6,43189
44964.4,43193.2
44963.7,43197.4
44962.7,43201.5
44961.3,43205.5
44959.5,43209.4
44957.3,43213
44954.7,43216.4
44951.9,43219.6
44948.7,43222.5
44945.3,43225
44941.7,43227.2
44937.8,43229
44933.8,43230.4
44929.7,43231.5
44925.5,43232.1
44921.3,43232.3
44763.8,43232.3
44759.5,43232.1
44755.3,43231.5
44751.2,43230.4
44747.2,43229
44743.4,43227.2
44739.7,43225
44736.3,43222.5
44733.2,43219.6
44730.3,43216.4
44727.8,43213
44725.6,43209.4
44723.8,43205.5
44722.3,43201.5
44721.3,43197.4
44720.7,43193.2
44720.5,43189
44720.5,42874
44720.7,42869.8
44721.3,42865.6
44722.3,42861.4
44723.8,42857.4
44725.6,42853.6
44727.8,42850
44730.3,42846.5
44733.2,42843.4
44736.3,42840.5
44739.7,42838
44743.4,42835.8
44747.2,42834
44751.2,42832.6
44755.3,42831.5
44759.5,42830.9
44763.8,42830.7
44921.3,42830.7
Z" /> 
<path style="fill:#000000; fill-opacity:1.0; 
stroke:#000000; stroke-width:0; stroke-opacity:1; 
stroke-linecap:round; stroke-linejoin:round;fill-rule:evenodd;"
d="M 44315.3,42830.9
44319.5,42831.5
44323.6,42832.6
44327.6,42834
44331.4,42835.8
44335.1,42838
44338.5,42840.5
44341.6,42843.4
44344.5,42846.5
44347,42850
44349.2,42853.6
44351,42857.4
44352.5,42861.4
44353.5,42865.6
44354.1,42869.8
44354.3,42874
44354.3,43189
44354.1,43193.2
44353.5,43197.4
44352.5,43201.5
44351,43205.5
44349.2,43209.4
44347,43213
44344.5,43216.4
44341.6,43219.6
44338.5,43222.5
44335.1,43225
44331.4,43227.2
44327.6,43229
44323.6,43230.4
44319.5,43231.5
44315.3,43232.1
44311,43232.3
44114.2,43232.3
44109.9,43232.1
44105.7,43231.5
44101.6,43230.4
44097.6,43229
44093.8,43227.2
44090.1,43225
44086.7,43222.5
44083.6,43219.6
44080.7,43216.4
44078.2,43213
44076,43209.4
44074.2,43205.5
44072.7,43201.5
44071.7,43197.4
44071.1,43193.2
44070.9,43189
44070.9,42874
44071.1,42869.8
44071.7,42865.6
44072.7,42861.4
44074.2,42857.4
44076,42853.6
44078.2,42850
44080.7,42846.5
44083.6,42843.4
44086.7,42840.5
44090.1,42838
44093.8,42835.8
44097.6,42834
44101.6,42832.6
44105.7,42831.5
44109.9,42830.9
44114.2,42830.7
44311,42830.7
Z" /> 
<path style="fill:#000000; fill-opacity:1.0; 
stroke:#000000; stroke-width:0; stroke-opacity:1; 
stroke-linecap:round; stroke-linejoin:round;fill-rule:evenodd;"
d="M 44610.5,42830.9
44614.7,42831.5
44618.9,42832.6
44622.9,42834
44626.7,42835.8
44630.4,42838
44633.8,42840.5
44636.9,42843.4
44639.8,42846.5
44642.3,42850
44644.5,42853.6
44646.3,42857.4
44647.7,42861.4
44648.8,42865.6
44649.4,42869.8
44649.6,42874
44649.6,43189
44649.4,43193.2
44648.8,43197.4
44647.7,43201.5
44646.3,43205.5
44644.5,43209.4
44642.3,43213
44639.8,43216.4
44636.9,43219.6
44633.8,43222.5
44630.4,43225
44626.7,43227.2
44622.9,43229
44618.9,43230.4
44614.7,43231.5
44610.5,43232.1
44606.3,43232.3
44448.8,43232.3
44444.6,43232.1
44440.4,43231.5
44436.2,43230.4
44432.2,43229
44428.4,43227.2
44424.8,43225
44421.3,43222.5
44418.2,43219.6
44415.3,43216.4
44412.8,43213
44410.6,43209.4
44408.8,43205.5
44407.4,43201.5
44406.3,43197.4
44405.7,43193.2
44405.5,43189
44405.5,42874
44405.7,42869.8
44406.3,42865.6
44407.4,42861.4
44408.8,42857.4
44410.6,42853.6
44412.8,42850
44415.3,42846.5
44418.2,42843.4
44421.3,42840.5
44424.8,42838
44428.4,42835.8
44432.2,42834
44436.2,42832.6
44440.4,42831.5
44444.6,42830.9
44448.8,42830.7
44606.3,42830.7
Z" /> 
<path style="fill:#000000; fill-opacity:1.0; 
stroke:#000000; stroke-width:0; stroke-opacity:1; 
stroke-linecap:round; stroke-linejoin:round;fill-rule:evenodd;"
d="M 45260.2,42122.3
45264.4,42122.9
45268.5,42123.9
45272.5,42125.3
45276.3,42127.2
45280,42129.3
45283.4,42131.9
45286.5,42134.7
45289.4,42137.9
45291.9,42141.3
45294.1,42144.9
45295.9,42148.8
45297.3,42152.8
45298.4,42156.9
45299,42161.1
45299.2,42165.4
45299.2,42480.3
45299,42484.6
45298.4,42488.8
45297.3,42492.9
45295.9,42496.9
45294.1,42500.7
45291.9,42504.4
45289.4,42507.8
45286.5,42510.9
45283.4,42513.8
45280,42516.3
45276.3,42518.5
45272.5,42520.3
45268.5,42521.8
45264.4,42522.8
45260.2,42523.4
45255.9,42523.6
45059.1,42523.6
45054.8,42523.4
45050.6,42522.8
45046.5,42521.8
45042.5,42520.3
45038.6,42518.5
45035,42516.3
45031.6,42513.8
45028.4,42510.9
45025.6,42507.8
45023,42504.4
45020.9,42500.7
45019,42496.9
45017.6,42492.9
45016.6,42488.8
45016,42484.6
45015.7,42480.3
45015.7,42165.4
45016,42161.1
45016.6,42156.9
45017.6,42152.8
45019,42148.8
45020.9,42144.9
45023,42141.3
45025.6,42137.9
45028.4,42134.7
45031.6,42131.9
45035,42129.3
45038.6,42127.2
45042.5,42125.3
45046.5,42123.9
45050.6,42122.9
45054.8,42122.3
45059.1,42122
45255.9,42122
Z" /> 
<path style="fill:#000000; fill-opacity:1.0; 
stroke:#000000; stroke-width:0; stroke-opacity:1; 
stroke-linecap:round; stroke-linejoin:round;fill-rule:evenodd;"
d="M 44610.5,42122.3
44614.7,42122.9
44618.9,42123.9
44622.9,42125.3
44626.7,42127.2
44630.4,42129.3
44633.8,42131.9
44636.9,42134.7
44639.8,42137.9
44642.3,42141.3
44644.5,42144.9
44646.3,42148.8
44647.7,42152.8
44648.8,42156.9
44649.4,42161.1
44649.6,42165.4
44649.6,42480.3
44649.4,42484.6
44648.8,42488.8
44647.7,42492.9
44646.3,42496.9
44644.5,42500.7
44642.3,42504.4
44639.8,42507.8
44636.9,42510.9
44633.8,42513.8
44630.4,42516.3
44626.7,42518.5
44622.9,42520.3
44618.9,42521.8
44614.7,42522.8
44610.5,42523.4
44606.3,42523.6
44448.8,42523.6
44444.6,42523.4
44440.4,42522.8
44436.2,42521.8
44432.2,42520.3
44428.4,42518.5
44424.8,42516.3
44421.3,42513.8
44418.2,42510.9
44415.3,42507.8
44412.8,42504.4
44410.6,42500.7
44408.8,42496.9
44407.4,42492.9
44406.3,42488.8
44405.7,42484.6
44405.5,42480.3
44405.5,42165.4
44405.7,42161.1
44406.3,42156.9
44407.4,42152.8
44408.8,42148.8
44410.6,42144.9
44412.8,42141.3
44415.3,42137.9
44418.2,42134.7
44421.3,42131.9
44424.8,42129.3
44428.4,42127.2
44432.2,42125.3
44436.2,42123.9
44440.4,42122.9
44444.6,42122.3
44448.8,42122
44606.3,42122
Z" /> 
<path style="fill:#000000; fill-opacity:1.0; 
stroke:#000000; stroke-width:0; stroke-opacity:1; 
stroke-linecap:round; stroke-linejoin:round;fill-rule:evenodd;"
d="M 44925.5,42122.3
44929.7,42122.9
44933.8,42123.9
44937.8,42125.3
44941.7,42127.2
44945.3,42129.3
44948.7,42131.9
44951.9,42134.7
44954.7,42137.9
44957.3,42141.3
44959.5,42144.9
44961.3,42148.8
44962.7,42152.8
44963.7,42156.9
44964.4,42161.1
44964.6,42165.4
44964.6,42480.3
44964.4,42484.6
44963.7,42488.8
44962.7,42492.9
44961.3,42496.9
44959.5,42500.7
44957.3,42504.4
44954.7,42507.8
44951.9,42510.9
44948.7,42513.8
44945.3,42516.3
44941.7,42518.5
44937.8,42520.3
44933.8,42521.8
44929.7,42522.8
44925.5,42523.4
44921.3,42523.6
44763.8,42523.6
44759.5,42523.4
44755.3,42522.8
44751.2,42521.8
44747.2,42520.3
44743.4,42518.5
44739.7,42516.3
44736.3,42513.8
44733.2,42510.9
44730.3,42507.8
44727.8,42504.4
44725.6,42500.7
44723.8,42496.9
44722.3,42492.9
44721.3,42488.8
44720.7,42484.6
44720.5,42480.3
44720.5,42165.4
44720.7,42161.1
44721.3,42156.9
44722.3,42152.8
44723.8,42148.8
44725.6,42144.9
44727.8,42141.3
44730.3,42137.9
44733.2,42134.7
44736.3,42131.9
44739.7,42129.3
44743.4,42127.2
44747.2,42125.3
44751.2,42123.9
44755.3,42122.9
44759.5,42122.3
44763.8,42122
44921.3,42122
Z" /> 
<path style="fill:#000000; fill-opacity:1.0; 
stroke:#000000; stroke-width:0; stroke-opacity:1; 
stroke-linecap:round; stroke-linejoin:round;fill-rule:evenodd;"
d="M 44315.3,42122.3
44319.5,42122.9
44323.6,42123.9
44327.6,42125.3
44331.4,42127.2
44335.1,42129.3
44338.5,42131.9
44341.6,42134.7
44344.5,42137.9
44347,42141.3
44349.2,42144.9
44351,42148.8
44352.5,42152.8
44353.5,42156.9
44354.1,42161.1
44354.3,42165.4
44354.3,42480.3
44354.1,42484.6
44353.5,42488.8
44352.5,42492.9
44351,42496.9
44349.2,42500.7
44347,42504.4
44344.5,42507.8
44341.6,42510.9
44338.5,42513.8
44335.1,42516.3
44331.4,42518.5
44327.6,42520.3
44323.6,42521.8
44319.5,42522.8
44315.3,42523.4
44311,42523.6
44114.2,42523.6
44109.9,42523.4
44105.7,42522.8
44101.6,42521.8
44097.6,42520.3
44093.8,42518.5
44090.1,42516.3
44086.7,42513.8
44083.6,42510.9
44080.7,42507.8
44078.2,42504.4
44076,42500.7
44074.2,42496.9
44072.7,42492.9
44071.7,42488.8
44071.1,42484.6
44070.9,42480.3
44070.9,42165.4
44071.1,42161.1
44071.7,42156.9
44072.7,42152.8
44074.2,42148.8
44076,42144.9
44078.2,42141.3
44080.7,42137.9
44083.6,42134.7
44086.7,42131.9
44090.1,42129.3
44093.8,42127.2
44097.6,42125.3
44101.6,42123.9
44105.7,42122.9
44109.9,42122.3
44114.2,42122
44311,42122
Z" /> 
</g>
<g >
</g>
<g style="fill:#000000; fill-opacity:1.0; 
stroke:#000000; stroke-width:0; stroke-opacity:1; 
stroke-linecap:round; stroke-linejoin:round;">
<path style="fill:#000000; fill-opacity:1.0; 
stroke:#000000; stroke-width:0; stroke-opacity:1; 
stroke-linecap:round; stroke-linejoin:round;fill-rule:evenodd;"
d="M 50968.8,42830.9
50973,42831.5
50977.1,42832.6
50981.1,42834
50985,42835.8
50988.6,42838
50992,42840.5
50995.2,42843.4
50998,42846.5
51000.6,42850
51002.8,42853.6
51004.6,42857.4
51006,42861.4
51007,42865.6
51007.7,42869.8
51007.9,42874
51007.9,43189
51007.7,43193.2
51007,43197.4
51006,43201.5
51004.6,43205.5
51002.8,43209.4
51000.6,43213
50998,43216.4
50995.2,43219.6
50992,43222.5
50988.6,43225
50985,43227.2
50981.1,43229
50977.1,43230.4
50973,43231.5
50968.8,43232.1
50964.6,43232.3
50767.7,43232.3
50763.5,43232.1
50759.3,43231.5
50755.1,43230.4
50751.1,43229
50747.3,43227.2
50743.7,43225
50740.2,43222.5
50737.1,43219.6
50734.2,43216.4
50731.7,43213
50729.5,43209.4
50727.7,43205.5
50726.3,43201.5
50725.2,43197.4
50724.6,43193.2
50724.4,43189
50724.4,42874
50724.6,42869.8
50725.2,42865.6
50726.3,42861.4
50727.7,42857.4
50729.5,42853.6
50731.7,42850
50734.2,42846.5
50737.1,42843.4
50740.2,42840.5
50743.7,42838
50747.3,42835.8
50751.1,42834
50755.1,42832.6
50759.3,42831.5
50763.5,42830.9
50767.7,42830.7
50964.6,42830.7
Z" /> 
<path style="fill:#000000; fill-opacity:1.0; 
stroke:#000000; stroke-width:0; stroke-opacity:1; 
stroke-linecap:round; stroke-linejoin:round;fill-rule:evenodd;"
d="M 50634.2,42830.9
50638.4,42831.5
50642.5,42832.6
50646.5,42834
50650.3,42835.8
50654,42838
50657.4,42840.5
50660.5,42843.4
50663.4,42846.5
50665.9,42850
50668.1,42853.6
50669.9,42857.4
50671.4,42861.4
50672.4,42865.6
50673,42869.8
50673.2,42874
50673.2,43189
50673,43193.2
50672.4,43197.4
50671.4,43201.5
50669.9,43205.5
50668.1,43209.4
50665.9,43213
50663.4,43216.4
50660.5,43219.6
50657.4,43222.5
50654,43225
50650.3,43227.2
50646.5,43229
50642.5,43230.4
50638.4,43231.5
50634.2,43232.1
50629.9,43232.3
50472.4,43232.3
50468.2,43232.1
50464,43231.5
50459.9,43230.4
50455.9,43229
50452,43227.2
50448.4,43225
50445,43222.5
50441.8,43219.6
50439,43216.4
50436.4,43213
50434.2,43209.4
50432.4,43205.5
50431,43201.5
50430,43197.4
50429.3,43193.2
50429.1,43189
50429.1,42874
50429.3,42869.8
50430,42865.6
50431,42861.4
50432.4,42857.4
50434.2,42853.6
50436.4,42850
50439,42846.5
50441.8,42843.4
50445,42840.5
50448.4,42838
50452,42835.8
50455.9,42834
50459.9,42832.6
50464,42831.5
50468.2,42830.9
50472.4,42830.7
50629.9,42830.7
Z" /> 
<path style="fill:#000000; fill-opacity:1.0; 
stroke:#000000; stroke-width:0; stroke-opacity:1; 
stroke-linecap:round; stroke-linejoin:round;fill-rule:evenodd;"
d="M 50023.9,42830.9
50028.1,42831.5
50032.3,42832.6
50036.3,42834
50040.1,42835.8
50043.7,42838
50047.2,42840.5
50050.3,42843.4
50053.2,42846.5
50055.7,42850
50057.9,42853.6
50059.7,42857.4
50061.1,42861.4
50062.2,42865.6
50062.8,42869.8
50063,42874
50063,43189
50062.8,43193.2
50062.2,43197.4
50061.1,43201.5
50059.7,43205.5
50057.9,43209.4
50055.7,43213
50053.2,43216.4
50050.3,43219.6
50047.2,43222.5
50043.7,43225
50040.1,43227.2
50036.3,43229
50032.3,43230.4
50028.1,43231.5
50023.9,43232.1
50019.7,43232.3
49822.8,43232.3
49818.6,43232.1
49814.4,43231.5
49810.3,43230.4
49806.3,43229
49802.4,43227.2
49798.8,43225
49795.4,43222.5
49792.2,43219.6
49789.4,43216.4
49786.8,43213
49784.6,43209.4
49782.8,43205.5
49781.4,43201.5
49780.4,43197.4
49779.7,43193.2
49779.5,43189
49779.5,42874
49779.7,42869.8
49780.4,42865.6
49781.4,42861.4
49782.8,42857.4
49784.6,42853.6
49786.8,42850
49789.4,42846.5
49792.2,42843.4
49795.4,42840.5
49798.8,42838
49802.4,42835.8
49806.3,42834
49810.3,42832.6
49814.4,42831.5
49818.6,42830.9
49822.8,42830.7
50019.7,42830.7
Z" /> 
<path style="fill:#000000; fill-opacity:1.0; 
stroke:#000000; stroke-width:0; stroke-opacity:1; 
stroke-linecap:round; stroke-linejoin:round;fill-rule:evenodd;"
d="M 50319.2,42830.9
50323.4,42831.5
50327.5,42832.6
50331.5,42834
50335.4,42835.8
50339,42838
50342.4,42840.5
50345.6,42843.4
50348.4,42846.5
50351,42850
50353.2,42853.6
50355,42857.4
50356.4,42861.4
50357.4,42865.6
50358.1,42869.8
50358.3,42874
50358.3,43189
50358.1,43193.2
50357.4,43197.4
50356.4,43201.5
50355,43205.5
50353.2,43209.4
50351,43213
50348.4,43216.4
50345.6,43219.6
50342.4,43222.5
50339,43225
50335.4,43227.2
50331.5,43229
50327.5,43230.4
50323.4,43231.5
50319.2,43232.1
50315,43232.3
50157.5,43232.3
50153.2,43232.1
50149,43231.5
50144.9,43230.4
50140.9,43229
50137.1,43227.2
50133.4,43225
50130,43222.5
50126.9,43219.6
50124,43216.4
50121.5,43213
50119.3,43209.4
50117.5,43205.5
50116,43201.5
50115,43197.4
50114.4,43193.2
50114.2,43189
50114.2,42874
50114.4,42869.8
50115,42865.6
50116,42861.4
50117.5,42857.4
50119.3,42853.6
50121.5,42850
50124,42846.5
50126.9,42843.4
50130,42840.5
50133.4,42838
50137.1,42835.8
50140.9,42834
50144.9,42832.6
50149,42831.5
50153.2,42830.9
50157.5,42830.7
50315,42830.7
Z" /> 
<path style="fill:#000000; fill-opacity:1.0; 
stroke:#000000; stroke-width:0; stroke-opacity:1; 
stroke-linecap:round; stroke-linejoin:round;fill-rule:evenodd;"
d="M 50968.8,42122.3
50973,42122.9
50977.1,42123.9
50981.1,42125.3
50985,42127.2
50988.6,42129.3
50992,42131.9
50995.2,42134.7
50998,42137.9
51000.6,42141.3
51002.8,42144.9
51004.6,42148.8
51006,42152.8
51007,42156.9
51007.7,42161.1
51007.9,42165.4
51007.9,42480.3
51007.7,42484.6
51007,42488.8
51006,42492.9
51004.6,42496.9
51002.8,42500.7
51000.6,42504.4
50998,42507.8
50995.2,42510.9
50992,42513.8
50988.6,42516.3
50985,42518.5
50981.1,42520.3
50977.1,42521.8
50973,42522.8
50968.8,42523.4
50964.6,42523.6
50767.7,42523.6
50763.5,42523.4
50759.3,42522.8
50755.1,42521.8
50751.1,42520.3
50747.3,42518.5
50743.7,42516.3
50740.2,42513.8
50737.1,42510.9
50734.2,42507.8
50731.7,42504.4
50729.5,42500.7
50727.7,42496.9
50726.3,42492.9
50725.2,42488.8
50724.6,42484.6
50724.4,42480.3
50724.4,42165.4
50724.6,42161.1
50725.2,42156.9
50726.3,42152.8
50727.7,42148.8
50729.5,42144.9
50731.7,42141.3
50734.2,42137.9
50737.1,42134.7
50740.2,42131.9
50743.7,42129.3
50747.3,42127.2
50751.1,42125.3
50755.1,42123.9
50759.3,42122.9
50763.5,42122.3
50767.7,42122
50964.6,42122
Z" /> 
<path style="fill:#000000; fill-opacity:1.0; 
stroke:#000000; stroke-width:0; stroke-opacity:1; 
stroke-linecap:round; stroke-linejoin:round;fill-rule:evenodd;"
d="M 50319.2,42122.3
50323.4,42122.9
50327.5,42123.9
50331.5,42125.3
50335.4,42127.2
50339,42129.3
50342.4,42131.9
50345.6,42134.7
50348.4,42137.9
50351,42141.3
50353.2,42144.9
50355,42148.8
50356.4,42152.8
50357.4,42156.9
50358.1,42161.1
50358.3,42165.4
50358.3,42480.3
50358.1,42484.6
50357.4,42488.8
50356.4,42492.9
50355,42496.9
50353.2,42500.7
50351,42504.4
50348.4,42507.8
50345.6,42510.9
50342.4,42513.8
50339,42516.3
50335.4,42518.5
50331.5,42520.3
50327.5,42521.8
50323.4,42522.8
50319.2,42523.4
50315,42523.6
50157.5,42523.6
50153.2,42523.4
50149,42522.8
50144.9,42521.8
50140.9,42520.3
50137.1,42518.5
50133.4,42516.3
50130,42513.8
50126.9,42510.9
50124,42507.8
50121.5,42504.4
50119.3,42500.7
50117.5,42496.9
50116,42492.9
50115,42488.8
50114.4,42484.6
50114.2,42480.3
50114.2,42165.4
50114.4,42161.1
50115,42156.9
50116,42152.8
50117.5,42148.8
50119.3,42144.9
50121.5,42141.3
50124,42137.9
50126.9,42134.7
50130,42131.9
50133.4,42129.3
50137.1,42127.2
50140.9,42125.3
50144.9,42123.9
50149,42122.9
50153.2,42122.3
50157.5,42122
50315,42122
Z" /> 
<path style="fill:#000000; fill-opacity:1.0; 
stroke:#000000; stroke-width:0; stroke-opacity:1; 
stroke-linecap:round; stroke-linejoin:round;fill-rule:evenodd;"
d="M 50634.2,42122.3
50638.4,42122.9
50642.5,42123.9
50646.5,42125.3
50650.3,42127.2
50654,42129.3
50657.4,42131.9
50660.5,42134.7
50663.4,42137.9
50665.9,42141.3
50668.1,42144.9
50669.9,42148.8
50671.4,42152.8
50672.4,42156.9
50673,42161.1
50673.2,42165.4
50673.2,42480.3
50673,42484.6
50672.4,42488.8
50671.4,42492.9
50669.9,42496.9
50668.1,42500.7
50665.9,42504.4
50663.4,42507.8
50660.5,42510.9
50657.4,42513.8
50654,42516.3
50650.3,42518.5
50646.5,42520.3
50642.5,42521.8
50638.4,42522.8
50634.2,42523.4
50629.9,42523.6
50472.4,42523.6
50468.2,42523.4
50464,42522.8
50459.9,42521.8
50455.9,42520.3
50452,42518.5
50448.4,42516.3
50445,42513.8
50441.8,42510.9
50439,42507.8
50436.4,42504.4
50434.2,42500.7
50432.4,42496.9
50431,42492.9
50430,42488.8
50429.3,42484.6
50429.1,42480.3
50429.1,42165.4
50429.3,42161.1
50430,42156.9
50431,42152.8
50432.4,42148.8
50434.2,42144.9
50436.4,42141.3
50439,42137.9
50441.8,42134.7
50445,42131.9
50448.4,42129.3
50452,42127.2
50455.9,42125.3
50459.9,42123.9
50464,42122.9
50468.2,42122.3
50472.4,42122
50629.9,42122
Z" /> 
<path style="fill:#000000; fill-opacity:1.0; 
stroke:#000000; stroke-width:0; stroke-opacity:1; 
stroke-linecap:round; stroke-linejoin:round;fill-rule:evenodd;"
d="M 50023.9,42122.3
50028.1,42122.9
50032.3,42123.9
50036.3,42125.3
50040.1,42127.2
50043.7,42129.3
50047.2,42131.9
50050.3,42134.7
50053.2,42137.9
50055.7,42141.3
50057.9,42144.9
50059.7,42148.8
50061.1,42152.8
50062.2,42156.9
50062.8,42161.1
50063,42165.4
50063,42480.3
50062.8,42484.6
50062.2,42488.8
50061.1,42492.9
50059.7,42496.9
50057.9,42500.7
50055.7,42504.4
50053.2,42507.8
50050.3,42510.9
50047.2,42513.8
50043.7,42516.3
50040.1,42518.5
50036.3,42520.3
50032.3,42521.8
50028.1,42522.8
50023.9,42523.4
50019.7,42523.6
49822.8,42523.6
49818.6,42523.4
49814.4,42522.8
49810.3,42521.8
49806.3,42520.3
49802.4,42518.5
49798.8,42516.3
49795.4,42513.8
49792.2,42510.9
49789.4,42507.8
49786.8,42504.4
49784.6,42500.7
49782.8,42496.9
49781.4,42492.9
49780.4,42488.8
49779.7,42484.6
49779.5,42480.3
49779.5,42165.4
49779.7,42161.1
49780.4,42156.9
49781.4,42152.8
49782.8,42148.8
49784.6,42144.9
49786.8,42141.3
49789.4,42137.9
49792.2,42134.7
49795.4,42131.9
49798.8,42129.3
49802.4,42127.2
49806.3,42125.3
49810.3,42123.9
49814.4,42122.9
49818.6,42122.3
49822.8,42122
50019.7,42122
Z" /> 
</g>
<g >
</g>
<g >
</g>
<g >
</g>
<g >
</g>
<g >
</g>
<g style="fill:#000000; fill-opacity:1.0; 
stroke:#000000; stroke-width:0; stroke-opacity:1; 
stroke-linecap:round; stroke-linejoin:round;">
<path style="fill:#000000; fill-opacity:1.0; 
stroke:#000000; stroke-width:0; stroke-opacity:1; 
stroke-linecap:round; stroke-linejoin:round;fill-rule:evenodd;"
d="M 57210.9,44839.2
57223.4,44841.1
57235.6,44844.1
57247.5,44848.4
57258.9,44853.8
57269.7,44860.2
57279.8,44867.7
57289.1,44876.2
57297.6,44885.6
57305.1,44895.7
57311.6,44906.5
57317,44917.9
57321.2,44929.8
57324.3,44942
57326.2,44954.5
57326.8,44967.1
57326.8,45584.1
57326.2,45596.7
57324.3,45609.2
57321.2,45621.4
57317,45633.3
57311.6,45644.7
57305.1,45655.5
57297.6,45665.6
57289.1,45675
57279.8,45683.4
57269.7,45690.9
57258.9,45697.4
57247.5,45702.8
57235.6,45707.1
57223.4,45710.1
57210.9,45712
57198.3,45712.6
56581.2,45712.6
56568.6,45712
56556.2,45710.1
56543.9,45707.1
56532.1,45702.8
56520.7,45697.4
56509.9,45690.9
56499.7,45683.4
56490.4,45675
56481.9,45665.6
56474.4,45655.5
56467.9,45644.7
56462.5,45633.3
56458.3,45621.4
56455.2,45609.2
56453.4,45596.7
56452.8,45584.1
56452.8,44967.1
56453.4,44954.5
56455.2,44942
56458.3,44929.8
56462.5,44917.9
56467.9,44906.5
56474.4,44895.7
56481.9,44885.6
56490.4,44876.2
56499.7,44867.7
56509.9,44860.2
56520.7,44853.8
56532.1,44848.4
56543.9,44844.1
56556.2,44841.1
56568.6,44839.2
56581.2,44838.6
57198.3,44838.6
Z" /> 
<circle cx="55889.8" cy="45275.6" r="437.008" /> 
</g>
<g style="fill:#000000; fill-opacity:1.0; 
stroke:#000000; stroke-width:39.3701; stroke-opacity:1; 
stroke-linecap:round; stroke-linejoin:round;">
</g>
<g style="fill:#000000; fill-opacity:1.0; 
stroke:#000000; stroke-width:0; stroke-opacity:1; 
stroke-linecap:round; stroke-linejoin:round;">
<circle cx="54889.8" cy="45275.6" r="437.008" /> 
</g>
<g style="fill:#000000; fill-opacity:1.0; 
stroke:#000000; stroke-width:39.3701; stroke-opacity:1; 
stroke-linecap:round; stroke-linejoin:round;">
</g>
<g style="fill:#000000; fill-opacity:1.0; 
stroke:#000000; stroke-width:0; stroke-opacity:1; 
stroke-linecap:round; stroke-linejoin:round;">
<circle cx="53889.8" cy="45275.6" r="437.008" /> 
</g>
<g style="fill:#000000; fill-opacity:1.0; 
stroke:#000000; stroke-width:39.3701; stroke-opacity:1; 
stroke-linecap:round; stroke-linejoin:round;">
</g>
<g style="fill:#000000; fill-opacity:1.0; 
stroke:#000000; stroke-width:0; stroke-opacity:1; 
stroke-linecap:round; stroke-linejoin:round;">
<circle cx="52889.8" cy="45275.6" r="437.008" /> 
</g>
<g style="fill:#000000; fill-opacity:1.0; 
stroke:#000000; stroke-width:39.3701; stroke-opacity:1; 
stroke-linecap:round; stroke-linejoin:round;">
</g>
<g style="fill:#000000; fill-opacity:1.0; 
stroke:#000000; stroke-width:0; stroke-opacity:1; 
stroke-linecap:round; stroke-linejoin:round;">
<circle cx="51889.8" cy="45275.6" r="437.008" /> 
</g>
<g style="fill:#000000; fill-opacity:1.0; 
stroke:#000000; stroke-width:39.3701; stroke-opacity:1; 
stroke-linecap:round; stroke-linejoin:round;">
</g>
<g style="fill:#000000; fill-opacity:1.0; 
stroke:#000000; stroke-width:0; stroke-opacity:1; 
stroke-linecap:round; stroke-linejoin:round;">
<circle cx="50889.8" cy="45275.6" r="437.008" /> 
</g>
<g style="fill:#000000; fill-opacity:1.0; 
stroke:#000000; stroke-width:39.3701; stroke-opacity:1; 
stroke-linecap:round; stroke-linejoin:round;">
</g>
<g style="fill:#000000; fill-opacity:1.0; 
stroke:#000000; stroke-width:0; stroke-opacity:1; 
stroke-linecap:round; stroke-linejoin:round;">
<circle cx="49889.8" cy="45275.6" r="437.008" /> 
</g>
<g style="fill:#000000; fill-opacity:1.0; 
stroke:#000000; stroke-width:39.3701; stroke-opacity:1; 
stroke-linecap:round; stroke-linejoin:round;">
</g>
<g style="fill:#000000; fill-opacity:1.0; 
stroke:#000000; stroke-width:0; stroke-opacity:1; 
stroke-linecap:round; stroke-linejoin:round;">
<circle cx="48889.8" cy="45275.6" r="437.008" /> 
</g>
<g style="fill:#000000; fill-opacity:1.0; 
stroke:#000000; stroke-width:39.3701; stroke-opacity:1; 
stroke-linecap:round; stroke-linejoin:round;">
</g>
<g style="fill:#000000; fill-opacity:1.0; 
stroke:#000000; stroke-width:0; stroke-opacity:1; 
stroke-linecap:round; stroke-linejoin:round;">
<circle cx="47889.8" cy="45275.6" r="437.008" /> 
</g>
<g style="fill:#000000; fill-opacity:1.0; 
stroke:#000000; stroke-width:39.3701; stroke-opacity:1; 
stroke-linecap:round; stroke-linejoin:round;">
</g>
<g style="fill:#000000; fill-opacity:1.0; 
stroke:#000000; stroke-width:0; stroke-opacity:1; 
stroke-linecap:round; stroke-linejoin:round;">
<circle cx="56889.8" cy="46275.6" r="437.008" /> 
</g>
<g style="fill:#000000; fill-opacity:1.0; 
stroke:#000000; stroke-width:39.3701; stroke-opacity:1; 
stroke-linecap:round; stroke-linejoin:round;">
</g>
<g style="fill:#000000; fill-opacity:1.0; 
stroke:#000000; stroke-width:0; stroke-opacity:1; 
stroke-linecap:round; stroke-linejoin:round;">
<circle cx="55889.8" cy="46275.6" r="437.008" /> 
</g>
<g style="fill:#000000; fill-opacity:1.0; 
stroke:#000000; stroke-width:39.3701; stroke-opacity:1; 
stroke-linecap:round; stroke-linejoin:round;">
</g>
<g style="fill:#000000; fill-opacity:1.0; 
stroke:#000000; stroke-width:0; stroke-opacity:1; 
stroke-linecap:round; stroke-linejoin:round;">
<circle cx="54889.8" cy="46275.6" r="437.008" /> 
</g>
<g style="fill:#000000; fill-opacity:1.0; 
stroke:#000000; stroke-width:39.3701; stroke-opacity:1; 
stroke-linecap:round; stroke-linejoin:round;">
</g>
<g style="fill:#000000; fill-opacity:1.0; 
stroke:#000000; stroke-width:0; stroke-opacity:1; 
stroke-linecap:round; stroke-linejoin:round;">
<circle cx="53889.8" cy="46275.6" r="437.008" /> 
</g>
<g style="fill:#000000; fill-opacity:1.0; 
stroke:#000000; stroke-width:39.3701; stroke-opacity:1; 
stroke-linecap:round; stroke-linejoin:round;">
</g>
<g style="fill:#000000; fill-opacity:1.0; 
stroke:#000000; stroke-width:0; stroke-opacity:1; 
stroke-linecap:round; stroke-linejoin:round;">
<circle cx="52889.8" cy="46275.6" r="437.008" /> 
</g>
<g style="fill:#000000; fill-opacity:1.0; 
stroke:#000000; stroke-width:39.3701; stroke-opacity:1; 
stroke-linecap:round; stroke-linejoin:round;">
</g>
<g style="fill:#000000; fill-opacity:1.0; 
stroke:#000000; stroke-width:0; stroke-opacity:1; 
stroke-linecap:round; stroke-linejoin:round;">
<circle cx="51889.8" cy="46275.6" r="437.008" /> 
</g>
<g style="fill:#000000; fill-opacity:1.0; 
stroke:#000000; stroke-width:39.3701; stroke-opacity:1; 
stroke-linecap:round; stroke-linejoin:round;">
</g>
<g style="fill:#000000; fill-opacity:1.0; 
stroke:#000000; stroke-width:0; stroke-opacity:1; 
stroke-linecap:round; stroke-linejoin:round;">
<circle cx="50889.8" cy="46275.6" r="437.008" /> 
</g>
<g style="fill:#000000; fill-opacity:1.0; 
stroke:#000000; stroke-width:39.3701; stroke-opacity:1; 
stroke-linecap:round; stroke-linejoin:round;">
</g>
<g style="fill:#000000; fill-opacity:1.0; 
stroke:#000000; stroke-width:0; stroke-opacity:1; 
stroke-linecap:round; stroke-linejoin:round;">
<circle cx="49889.8" cy="46275.6" r="437.008" /> 
</g>
<g style="fill:#000000; fill-opacity:1.0; 
stroke:#000000; stroke-width:39.3701; stroke-opacity:1; 
stroke-linecap:round; stroke-linejoin:round;">
</g>
<g style="fill:#000000; fill-opacity:1.0; 
stroke:#000000; stroke-width:0; stroke-opacity:1; 
stroke-linecap:round; stroke-linejoin:round;">
<circle cx="48889.8" cy="46275.6" r="437.008" /> 
</g>
<g style="fill:#000000; fill-opacity:1.0; 
stroke:#000000; stroke-width:39.3701; stroke-opacity:1; 
stroke-linecap:round; stroke-linejoin:round;">
</g>
<g style="fill:#000000; fill-opacity:1.0; 
stroke:#000000; stroke-width:0; stroke-opacity:1; 
stroke-linecap:round; stroke-linejoin:round;">
<circle cx="47889.8" cy="46275.6" r="437.008" /> 
</g>
<g style="fill:#000000; fill-opacity:1.0; 
stroke:#000000; stroke-width:39.3701; stroke-opacity:1; 
stroke-linecap:round; stroke-linejoin:round;">
</g>
<g >
</g>
<g >
</g>
<g >
</g>
<g >
</g>
<g >
</g>
<g >
</g>
<g >
</g>
<g style="fill:#000000; fill-opacity:1.0; 
stroke:#000000; stroke-width:39.3701; stroke-opacity:1; 
stroke-linecap:round; stroke-linejoin:round;">
</g>
<g style="fill:#000000; fill-opacity:1.0; 
stroke:#000000; stroke-width:795.276; stroke-opacity:1; 
stroke-linecap:round; stroke-linejoin:round;">
</g>
<g style="fill:#000000; fill-opacity:0.0; 
stroke:#000000; stroke-width:795.276; stroke-opacity:1; 
stroke-linecap:round; stroke-linejoin:round;">
<path d="M27590 18937
L27590 19645
" />
</g>
<g style="fill:#000000; fill-opacity:0.0; 
stroke:#000000; stroke-width:0; stroke-opacity:1; 
stroke-linecap:round; stroke-linejoin:round;">
</g>
<g style="fill:#000000; fill-opacity:1.0; 
stroke:#000000; stroke-width:0; stroke-opacity:1; 
stroke-linecap:round; stroke-linejoin:round;">
<path style="fill:#000000; fill-opacity:1.0; 
stroke:#000000; stroke-width:0; stroke-opacity:1; 
stroke-linecap:round; stroke-linejoin:round;fill-rule:evenodd;"
d="M 25888.6,18539.9
25899.3,18541.5
25909.8,18544.1
25920,18547.8
25929.8,18552.4
25939.1,18558
25947.8,18564.4
25955.8,18571.7
25963.1,18579.8
25969.6,18588.5
25975.1,18597.8
25979.8,18607.6
25983.4,18617.8
25986.1,18628.3
25987.7,18639
25988.2,18649.8
25988.2,19932.9
25987.7,19943.7
25986.1,19954.4
25983.4,19964.9
25979.8,19975.1
25975.1,19984.9
25969.6,19994.2
25963.1,20002.9
25955.8,20011
25947.8,20018.2
25939.1,20024.7
25929.8,20030.3
25920,20034.9
25909.8,20038.6
25899.3,20041.2
25888.6,20042.8
25877.7,20043.3
25303.4,20043.3
25292.5,20042.8
25281.8,20041.2
25271.3,20038.6
25261.1,20034.9
25251.3,20030.3
25242,20024.7
25233.3,20018.2
25225.3,20011
25218,20002.9
25211.5,19994.2
25206,19984.9
25201.3,19975.1
25197.7,19964.9
25195,19954.4
25193.4,19943.7
25192.9,19932.9
25192.9,18649.8
25193.4,18639
25195,18628.3
25197.7,18617.8
25201.3,18607.6
25206,18597.8
25211.5,18588.5
25218,18579.8
25225.3,18571.7
25233.3,18564.4
25242,18558
25251.3,18552.4
25261.1,18547.8
25271.3,18544.1
25281.8,18541.5
25292.5,18539.9
25303.4,18539.4
25877.7,18539.4
Z" /> 
</g>
<g >
</g>
<g >
</g>
<g >
</g>
<g >
</g>
<g >
</g>
<g >
</g>
<g >
</g>
<g >
</g>
<g >
</g>
<g >
</g>
<g >
</g>
<g >
</g>
<g >
</g>
<g >
</g>
<g style="fill:#000000; fill-opacity:1.0; 
stroke:#000000; stroke-width:0; stroke-opacity:1; 
stroke-linecap:round; stroke-linejoin:round;">
<circle cx="43267.7" cy="27598.4" r="240.157" /> 
</g>
<g style="fill:#000000; fill-opacity:1.0; 
stroke:#000000; stroke-width:39.3701; stroke-opacity:1; 
stroke-linecap:round; stroke-linejoin:round;">
</g>
<g style="fill:#000000; fill-opacity:1.0; 
stroke:#000000; stroke-width:0; stroke-opacity:1; 
stroke-linecap:round; stroke-linejoin:round;">
<circle cx="42480.3" cy="27598.4" r="240.157" /> 
</g>
<g style="fill:#000000; fill-opacity:1.0; 
stroke:#000000; stroke-width:39.3701; stroke-opacity:1; 
stroke-linecap:round; stroke-linejoin:round;">
</g>
<g style="fill:#000000; fill-opacity:1.0; 
stroke:#000000; stroke-width:0; stroke-opacity:1; 
stroke-linecap:round; stroke-linejoin:round;">
<circle cx="41692.9" cy="27598.4" r="240.157" /> 
</g>
<g style="fill:#000000; fill-opacity:1.0; 
stroke:#000000; stroke-width:39.3701; stroke-opacity:1; 
stroke-linecap:round; stroke-linejoin:round;">
</g>
<g style="fill:#000000; fill-opacity:1.0; 
stroke:#000000; stroke-width:0; stroke-opacity:1; 
stroke-linecap:round; stroke-linejoin:round;">
<circle cx="40905.5" cy="27598.4" r="240.157" /> 
</g>
<g style="fill:#000000; fill-opacity:1.0; 
stroke:#000000; stroke-width:39.3701; stroke-opacity:1; 
stroke-linecap:round; stroke-linejoin:round;">
</g>
<g style="fill:#000000; fill-opacity:1.0; 
stroke:#000000; stroke-width:0; stroke-opacity:1; 
stroke-linecap:round; stroke-linejoin:round;">
<circle cx="40118.1" cy="27598.4" r="240.157" /> 
</g>
<g style="fill:#000000; fill-opacity:1.0; 
stroke:#000000; stroke-width:39.3701; stroke-opacity:1; 
stroke-linecap:round; stroke-linejoin:round;">
</g>
<g style="fill:#000000; fill-opacity:1.0; 
stroke:#000000; stroke-width:0; stroke-opacity:1; 
stroke-linecap:round; stroke-linejoin:round;">
<circle cx="55679.1" cy="35019.7" r="240.157" /> 
</g>
<g style="fill:#000000; fill-opacity:1.0; 
stroke:#000000; stroke-width:39.3701; stroke-opacity:1; 
stroke-linecap:round; stroke-linejoin:round;">
</g>
<g style="fill:#000000; fill-opacity:1.0; 
stroke:#000000; stroke-width:0; stroke-opacity:1; 
stroke-linecap:round; stroke-linejoin:round;">
<circle cx="58297.2" cy="41269.7" r="240.157" /> 
</g>
<g style="fill:#000000; fill-opacity:1.0; 
stroke:#000000; stroke-width:39.3701; stroke-opacity:1; 
stroke-linecap:round; stroke-linejoin:round;">
</g>
<g style="fill:#000000; fill-opacity:1.0; 
stroke:#000000; stroke-width:0; stroke-opacity:1; 
stroke-linecap:round; stroke-linejoin:round;">
<circle cx="59720.5" cy="36401.6" r="240.157" /> 
</g>
<g style="fill:#000000; fill-opacity:1.0; 
stroke:#000000; stroke-width:39.3701; stroke-opacity:1; 
stroke-linecap:round; stroke-linejoin:round;">
</g>
<g style="fill:#000000; fill-opacity:1.0; 
stroke:#000000; stroke-width:0; stroke-opacity:1; 
stroke-linecap:round; stroke-linejoin:round;">
<circle cx="43267.7" cy="34685" r="240.157" /> 
</g>
<g style="fill:#000000; fill-opacity:1.0; 
stroke:#000000; stroke-width:39.3701; stroke-opacity:1; 
stroke-linecap:round; stroke-linejoin:round;">
</g>
<g style="fill:#000000; fill-opacity:1.0; 
stroke:#000000; stroke-width:0; stroke-opacity:1; 
stroke-linecap:round; stroke-linejoin:round;">
<circle cx="28657.5" cy="20358.3" r="240.157" /> 
</g>
<g style="fill:#000000; fill-opacity:1.0; 
stroke:#000000; stroke-width:39.3701; stroke-opacity:1; 
stroke-linecap:round; stroke-linejoin:round;">
</g>
<g style="fill:#000000; fill-opacity:1.0; 
stroke:#000000; stroke-width:0; stroke-opacity:1; 
stroke-linecap:round; stroke-linejoin:round;">
<circle cx="29425.2" cy="21126" r="240.157" /> 
</g>
<g style="fill:#000000; fill-opacity:1.0; 
stroke:#000000; stroke-width:39.3701; stroke-opacity:1; 
stroke-linecap:round; stroke-linejoin:round;">
</g>
<g style="fill:#000000; fill-opacity:1.0; 
stroke:#000000; stroke-width:0; stroke-opacity:1; 
stroke-linecap:round; stroke-linejoin:round;">
<circle cx="41771.7" cy="24960.6" r="240.157" /> 
</g>
<g style="fill:#000000; fill-opacity:1.0; 
stroke:#000000; stroke-width:39.3701; stroke-opacity:1; 
stroke-linecap:round; stroke-linejoin:round;">
</g>
<g style="fill:#000000; fill-opacity:1.0; 
stroke:#000000; stroke-width:0; stroke-opacity:1; 
stroke-linecap:round; stroke-linejoin:round;">
<circle cx="40984.3" cy="24960.6" r="240.157" /> 
</g>
<g style="fill:#000000; fill-opacity:1.0; 
stroke:#000000; stroke-width:39.3701; stroke-opacity:1; 
stroke-linecap:round; stroke-linejoin:round;">
</g>
<g style="fill:#000000; fill-opacity:1.0; 
stroke:#000000; stroke-width:0; stroke-opacity:1; 
stroke-linecap:round; stroke-linejoin:round;">
<circle cx="40196.9" cy="24960.6" r="240.157" /> 
</g>
<g style="fill:#000000; fill-opacity:1.0; 
stroke:#000000; stroke-width:39.3701; stroke-opacity:1; 
stroke-linecap:round; stroke-linejoin:round;">
</g>
<g style="fill:#000000; fill-opacity:1.0; 
stroke:#000000; stroke-width:0; stroke-opacity:1; 
stroke-linecap:round; stroke-linejoin:round;">
<circle cx="56417.3" cy="42293.3" r="240.157" /> 
</g>
<g style="fill:#000000; fill-opacity:1.0; 
stroke:#000000; stroke-width:39.3701; stroke-opacity:1; 
stroke-linecap:round; stroke-linejoin:round;">
</g>
<g style="fill:#000000; fill-opacity:1.0; 
stroke:#000000; stroke-width:0; stroke-opacity:1; 
stroke-linecap:round; stroke-linejoin:round;">
<circle cx="47391.7" cy="42322.8" r="240.157" /> 
</g>
<g style="fill:#000000; fill-opacity:1.0; 
stroke:#000000; stroke-width:39.3701; stroke-opacity:1; 
stroke-linecap:round; stroke-linejoin:round;">
</g>
<g style="fill:#000000; fill-opacity:1.0; 
stroke:#000000; stroke-width:0; stroke-opacity:1; 
stroke-linecap:round; stroke-linejoin:round;">
<circle cx="34606.3" cy="36259.8" r="240.157" /> 
</g>
<g style="fill:#000000; fill-opacity:1.0; 
stroke:#000000; stroke-width:39.3701; stroke-opacity:1; 
stroke-linecap:round; stroke-linejoin:round;">
</g>
<g style="fill:#000000; fill-opacity:1.0; 
stroke:#000000; stroke-width:0; stroke-opacity:1; 
stroke-linecap:round; stroke-linejoin:round;">
<circle cx="26929.1" cy="33897.6" r="240.157" /> 
</g>
<g style="fill:#000000; fill-opacity:1.0; 
stroke:#000000; stroke-width:39.3701; stroke-opacity:1; 
stroke-linecap:round; stroke-linejoin:round;">
</g>
<g style="fill:#000000; fill-opacity:1.0; 
stroke:#000000; stroke-width:0; stroke-opacity:1; 
stroke-linecap:round; stroke-linejoin:round;">
<circle cx="25984.3" cy="20866.1" r="240.157" /> 
</g>
<g style="fill:#000000; fill-opacity:1.0; 
stroke:#000000; stroke-width:39.3701; stroke-opacity:1; 
stroke-linecap:round; stroke-linejoin:round;">
</g>
<g style="fill:#000000; fill-opacity:1.0; 
stroke:#000000; stroke-width:0; stroke-opacity:1; 
stroke-linecap:round; stroke-linejoin:round;">
<circle cx="25984.3" cy="21850.4" r="240.157" /> 
</g>
<g style="fill:#000000; fill-opacity:1.0; 
stroke:#000000; stroke-width:39.3701; stroke-opacity:1; 
stroke-linecap:round; stroke-linejoin:round;">
</g>
<g style="fill:#000000; fill-opacity:1.0; 
stroke:#000000; stroke-width:0; stroke-opacity:1; 
stroke-linecap:round; stroke-linejoin:round;">
<circle cx="28248" cy="43602.4" r="240.157" /> 
</g>
<g style="fill:#000000; fill-opacity:1.0; 
stroke:#000000; stroke-width:39.3701; stroke-opacity:1; 
stroke-linecap:round; stroke-linejoin:round;">
</g>
<g style="fill:#000000; fill-opacity:1.0; 
stroke:#000000; stroke-width:0; stroke-opacity:1; 
stroke-linecap:round; stroke-linejoin:round;">
<circle cx="33759.8" cy="43602.4" r="240.157" /> 
</g>
<g style="fill:#000000; fill-opacity:1.0; 
stroke:#000000; stroke-width:39.3701; stroke-opacity:1; 
stroke-linecap:round; stroke-linejoin:round;">
</g>
<g >
</g>
<g >
</g>
</g>
<g style="fill:#000000; fill-opacity:1.0; 
stroke:#000000; stroke-width:39.3701; stroke-opacity:1; 
stroke-linecap:round; stroke-linejoin:round;">
<path style="fill:#000000; fill-opacity:1.0; 
stroke:#000000; stroke-width:39.3701; stroke-opacity:1; 
stroke-linecap:round; stroke-linejoin:round;fill-rule:evenodd;"
d="M 39228.8,45583.5
39229.1,45584.1
39229.1,45610
39229.1,45610.1
39227,45631.6
39227,45631.7
39221.3,45650.6
39221.2,45650.7
39211.9,45668.1
39211.8,45668.2
39199.3,45683.5
39199.2,45683.6
39184,45696.1
39183.9,45696.2
39166.5,45705.5
39166.3,45705.5
39147.5,45711.2
39147.3,45711.3
39125.8,45713.4
39125.7,45713.4
39099.9,45713.4
39099.2,45713
39099.2,45712.2
39099.8,45711.8
39124.8,45709.4
39148.7,45702.1
39170.8,45690.3
39190.2,45674.4
39206,45655.1
39217.8,45633
39225.1,45609
39227.6,45584
39228,45583.4
Z" /> 
<path style="fill:#000000; fill-opacity:1.0; 
stroke:#000000; stroke-width:39.3701; stroke-opacity:1; 
stroke-linecap:round; stroke-linejoin:round;fill-rule:evenodd;"
d="M 56453.5,45584
56456,45609
56463.3,45633
56475.1,45655.1
56490.9,45674.4
56510.3,45690.3
56532.4,45702.1
56556.3,45709.4
56581.3,45711.8
56582,45712.3
56581.9,45713.1
56581.2,45713.4
56555.4,45713.4
56555.3,45713.4
56533.8,45711.3
56533.6,45711.2
56514.8,45705.5
56514.6,45705.5
56497.2,45696.2
56497.1,45696.1
56481.9,45683.6
56481.8,45683.5
56469.3,45668.2
56469.2,45668.1
56459.9,45650.7
56459.8,45650.6
56454.1,45631.7
56454.1,45631.6
56452,45610.1
56452,45610
56452,45584.1
56452.4,45583.4
56453.1,45583.4
Z" /> 
<path style="fill:#000000; fill-opacity:1.0; 
stroke:#000000; stroke-width:39.3701; stroke-opacity:1; 
stroke-linecap:round; stroke-linejoin:round;fill-rule:evenodd;"
d="M 38355.1,45584
38357.6,45609
38364.8,45633
38376.6,45655.1
38392.5,45674.4
38411.9,45690.3
38433.9,45702.1
38457.9,45709.4
38482.9,45711.8
38483.5,45712.3
38483.5,45713.1
38482.8,45713.4
38457,45713.4
38456.9,45713.4
38435.3,45711.3
38435.2,45711.2
38416.3,45705.5
38416.2,45705.5
38398.8,45696.2
38398.7,45696.1
38383.5,45683.6
38383.3,45683.5
38370.8,45668.2
38370.8,45668.1
38361.5,45650.7
38361.4,45650.6
38355.7,45631.7
38355.7,45631.6
38353.5,45610.1
38353.5,45610
38353.5,45584.1
38353.9,45583.4
38354.7,45583.4
Z" /> 
<path style="fill:#000000; fill-opacity:1.0; 
stroke:#000000; stroke-width:39.3701; stroke-opacity:1; 
stroke-linecap:round; stroke-linejoin:round;fill-rule:evenodd;"
d="M 57327.2,45583.5
57327.6,45584.1
57327.6,45610
57327.6,45610.1
57325.4,45631.6
57325.4,45631.7
57319.7,45650.6
57319.6,45650.7
57310.3,45668.1
57310.3,45668.2
57297.8,45683.5
57297.6,45683.6
57282.4,45696.1
57282.3,45696.2
57264.9,45705.5
57264.8,45705.5
57245.9,45711.2
57245.8,45711.3
57224.2,45713.4
57224.2,45713.4
57198.3,45713.4
57197.6,45713
57197.6,45712.2
57198.2,45711.8
57223.2,45709.4
57247.2,45702.1
57269.2,45690.3
57288.6,45674.4
57304.5,45655.1
57316.3,45633
57323.5,45609
57326,45584
57326.4,45583.4
Z" /> 
<path style="fill:#000000; fill-opacity:1.0; 
stroke:#000000; stroke-width:39.3701; stroke-opacity:1; 
stroke-linecap:round; stroke-linejoin:round;fill-rule:evenodd;"
d="M 38483.5,44838.2
38483.5,44839
38482.9,44839.4
38457.9,44841.8
38433.9,44849.1
38411.9,44860.9
38392.5,44876.8
38376.6,44896.1
38364.8,44918.2
38357.6,44942.2
38355.1,44967.1
38354.7,44967.8
38353.9,44967.7
38353.5,44967.1
38353.5,44941.2
38353.5,44941.1
38355.7,44919.6
38355.7,44919.4
38361.4,44900.6
38361.5,44900.4
38370.8,44883.1
38370.8,44882.9
38383.3,44867.7
38383.5,44867.6
38398.7,44855.1
38398.8,44855
38416.2,44845.7
38416.3,44845.7
38435.2,44840
38435.3,44839.9
38456.9,44837.8
38457,44837.8
38482.8,44837.8
Z" /> 
<path style="fill:#000000; fill-opacity:1.0; 
stroke:#000000; stroke-width:39.3701; stroke-opacity:1; 
stroke-linecap:round; stroke-linejoin:round;fill-rule:evenodd;"
d="M 56581.9,44838.2
56581.9,44839
56581.3,44839.4
56556.3,44841.8
56532.4,44849.1
56510.3,44860.9
56490.9,44876.8
56475.1,44896.1
56463.3,44918.2
56456,44942.2
56453.5,44967.1
56453.1,44967.8
56452.3,44967.7
56452,44967.1
56452,44941.2
56452,44941.1
56454.1,44919.6
56454.1,44919.4
56459.8,44900.6
56459.9,44900.4
56469.2,44883.1
56469.3,44882.9
56481.8,44867.7
56481.9,44867.6
56497.1,44855.1
56497.2,44855
56514.6,44845.7
56514.8,44845.7
56533.6,44840
56533.8,44839.9
56555.3,44837.8
56555.4,44837.8
56581.2,44837.8
Z" /> 
<path style="fill:#000000; fill-opacity:1.0; 
stroke:#000000; stroke-width:39.3701; stroke-opacity:1; 
stroke-linecap:round; stroke-linejoin:round;fill-rule:evenodd;"
d="M 39125.8,44837.8
39147.3,44839.9
39147.5,44840
39166.3,44845.7
39166.5,44845.7
39183.9,44855
39184,44855.1
39199.2,44867.6
39199.3,44867.7
39211.8,44882.9
39211.9,44883.1
39221.2,44900.4
39221.3,44900.6
39227,44919.4
39227,44919.6
39229.1,44941.1
39229.1,44941.2
39229.1,44967.1
39228.7,44967.7
39228,44967.7
39227.6,44967.1
39225.1,44942.2
39217.8,44918.2
39206,44896.1
39190.2,44876.8
39170.8,44860.9
39148.7,44849.1
39124.8,44841.8
39099.8,44839.4
39099.1,44838.9
39099.2,44838.1
39099.9,44837.8
39125.7,44837.8
Z" /> 
<path style="fill:#000000; fill-opacity:1.0; 
stroke:#000000; stroke-width:39.3701; stroke-opacity:1; 
stroke-linecap:round; stroke-linejoin:round;fill-rule:evenodd;"
d="M 57224.2,44837.8
57245.8,44839.9
57245.9,44840
57264.8,44845.7
57264.9,44845.7
57282.3,44855
57282.4,44855.1
57297.6,44867.6
57297.8,44867.7
57310.3,44882.9
57310.3,44883.1
57319.6,44900.4
57319.7,44900.6
57325.4,44919.4
57325.4,44919.6
57327.6,44941.1
57327.6,44941.2
57327.6,44967.1
57327.2,44967.7
57326.4,44967.7
57326,44967.1
57323.5,44942.2
57316.3,44918.2
57304.5,44896.1
57288.6,44876.8
57269.2,44860.9
57247.2,44849.1
57223.2,44841.8
57198.2,44839.4
57197.6,44838.9
57197.7,44838.1
57198.3,44837.8
57224.2,44837.8
Z" /> 
<path style="fill:#000000; fill-opacity:1.0; 
stroke:#000000; stroke-width:39.3701; stroke-opacity:1; 
stroke-linecap:round; stroke-linejoin:round;fill-rule:evenodd;"
d="M 60164.1,42830.3
60164.2,42830.7
60164.2,43232.3
60163.8,43233
60163.4,43233.1
60112.2,43233.1
60111.5,43232.7
60111.4,43232.3
60111.4,42831.5
59868.9,42831.5
59868.9,43232.3
59868.5,43233
59868.1,43233.1
59797.2,43233.1
59796.6,43232.7
59796.5,43232.3
59796.5,42831.5
59553.9,42831.5
59553.9,43232.3
59553.5,43233
59553.1,43233.1
59502,43233.1
59501.3,43232.7
59501.2,43232.3
59501.2,42830.7
59501.6,42830
59502,42829.9
60163.4,42829.9
Z" /> 
<path style="fill:#000000; fill-opacity:1.0; 
stroke:#000000; stroke-width:39.3701; stroke-opacity:1; 
stroke-linecap:round; stroke-linejoin:round;fill-rule:evenodd;"
d="M 50725.1,42830.3
50725.2,42830.7
50725.2,43232.3
50724.8,43233
50724.4,43233.1
50673.2,43233.1
50672.5,43232.7
50672.4,43232.3
50672.4,42831.5
50429.9,42831.5
50429.9,43232.3
50429.5,43233
50429.1,43233.1
50358.3,43233.1
50357.6,43232.7
50357.5,43232.3
50357.5,42831.5
50115,42831.5
50115,43232.3
50114.6,43233
50114.2,43233.1
50063,43233.1
50062.3,43232.7
50062.2,43232.3
50062.2,42830.7
50062.6,42830
50063,42829.9
50724.4,42829.9
Z" /> 
<path style="fill:#000000; fill-opacity:1.0; 
stroke:#000000; stroke-width:39.3701; stroke-opacity:1; 
stroke-linecap:round; stroke-linejoin:round;fill-rule:evenodd;"
d="M 45016.4,42830.3
45016.5,42830.7
45016.5,43232.3
45016.1,43233
45015.7,43233.1
44964.6,43233.1
44963.9,43232.7
44963.8,43232.3
44963.8,42831.5
44721.3,42831.5
44721.3,43232.3
44720.9,43233
44720.5,43233.1
44649.6,43233.1
44648.9,43232.7
44648.8,43232.3
44648.8,42831.5
44406.3,42831.5
44406.3,43232.3
44405.9,43233
44405.5,43233.1
44354.3,43233.1
44353.6,43232.7
44353.5,43232.3
44353.5,42830.7
44353.9,42830
44354.3,42829.9
45015.7,42829.9
Z" /> 
<path style="fill:#000000; fill-opacity:1.0; 
stroke:#000000; stroke-width:39.3701; stroke-opacity:1; 
stroke-linecap:round; stroke-linejoin:round;fill-rule:evenodd;"
d="M 54977.1,42830.3
54977.2,42830.7
54977.2,43232.3
54976.8,43233
54976.4,43233.1
54925.2,43233.1
54924.5,43232.7
54924.4,43232.3
54924.4,42831.5
54681.9,42831.5
54681.9,43232.3
54681.5,43233
54681.1,43233.1
54610.2,43233.1
54609.6,43232.7
54609.4,43232.3
54609.4,42831.5
54366.9,42831.5
54366.9,43232.3
54366.5,43233
54366.1,43233.1
54315,43233.1
54314.3,43232.7
54314.2,43232.3
54314.2,42830.7
54314.6,42830
54315,42829.9
54976.4,42829.9
Z" /> 
<path style="fill:#000000; fill-opacity:1.0; 
stroke:#000000; stroke-width:39.3701; stroke-opacity:1; 
stroke-linecap:round; stroke-linejoin:round;fill-rule:evenodd;"
d="M 60164.1,42121.7
60164.2,42122
60164.2,42523.6
60163.8,42524.3
60163.4,42524.4
60112.2,42524.4
60111.5,42524
60111.4,42523.6
60111.4,42122.8
59868.9,42122.8
59868.9,42523.6
59868.5,42524.3
59868.1,42524.4
59797.2,42524.4
59796.6,42524
59796.5,42523.6
59796.5,42122.8
59553.9,42122.8
59553.9,42523.6
59553.5,42524.3
59553.1,42524.4
59502,42524.4
59501.3,42524
59501.2,42523.6
59501.2,42122
59501.6,42121.4
59502,42121.3
60163.4,42121.3
Z" /> 
<path style="fill:#000000; fill-opacity:1.0; 
stroke:#000000; stroke-width:39.3701; stroke-opacity:1; 
stroke-linecap:round; stroke-linejoin:round;fill-rule:evenodd;"
d="M 50725.1,42121.7
50725.2,42122
50725.2,42523.6
50724.8,42524.3
50724.4,42524.4
50673.2,42524.4
50672.5,42524
50672.4,42523.6
50672.4,42122.8
50429.9,42122.8
50429.9,42523.6
50429.5,42524.3
50429.1,42524.4
50358.3,42524.4
50357.6,42524
50357.5,42523.6
50357.5,42122.8
50115,42122.8
50115,42523.6
50114.6,42524.3
50114.2,42524.4
50063,42524.4
50062.3,42524
50062.2,42523.6
50062.2,42122
50062.6,42121.4
50063,42121.3
50724.4,42121.3
Z" /> 
<path style="fill:#000000; fill-opacity:1.0; 
stroke:#000000; stroke-width:39.3701; stroke-opacity:1; 
stroke-linecap:round; stroke-linejoin:round;fill-rule:evenodd;"
d="M 54977.1,42121.7
54977.2,42122
54977.2,42523.6
54976.8,42524.3
54976.4,42524.4
54925.2,42524.4
54924.5,42524
54924.4,42523.6
54924.4,42122.8
54681.9,42122.8
54681.9,42523.6
54681.5,42524.3
54681.1,42524.4
54610.2,42524.4
54609.6,42524
54609.4,42523.6
54609.4,42122.8
54366.9,42122.8
54366.9,42523.6
54366.5,42524.3
54366.1,42524.4
54315,42524.4
54314.3,42524
54314.2,42523.6
54314.2,42122
54314.6,42121.4
54315,42121.3
54976.4,42121.3
Z" /> 
<path style="fill:#000000; fill-opacity:1.0; 
stroke:#000000; stroke-width:39.3701; stroke-opacity:1; 
stroke-linecap:round; stroke-linejoin:round;fill-rule:evenodd;"
d="M 45016.4,42121.7
45016.5,42122
45016.5,42523.6
45016.1,42524.3
45015.7,42524.4
44964.6,42524.4
44963.9,42524
44963.8,42523.6
44963.8,42122.8
44721.3,42122.8
44721.3,42523.6
44720.9,42524.3
44720.5,42524.4
44649.6,42524.4
44648.9,42524
44648.8,42523.6
44648.8,42122.8
44406.3,42122.8
44406.3,42523.6
44405.9,42524.3
44405.5,42524.4
44354.3,42524.4
44353.6,42524
44353.5,42523.6
44353.5,42122
44353.9,42121.4
44354.3,42121.3
45015.7,42121.3
Z" /> 
</g> 
</svg>
